<svg width="512" height="512" viewBox="0 0 512 512" fill="none" xmlns="http://www.w3.org/2000/svg">
<path d="M160 328C153.635 328 147.53 330.529 143.029 335.029C138.529 339.53 136 345.635 136 352V448C136 454.365 138.529 460.47 143.029 464.971C147.53 469.471 153.635 472 160 472C166.365 472 172.47 469.471 176.971 464.971C181.471 460.47 184 454.365 184 448V352C184 345.635 181.471 339.53 176.971 335.029C172.47 330.529 166.365 328 160 328ZM168 448C168 450.122 167.157 452.157 165.657 453.657C164.157 455.157 162.122 456 160 456C157.878 456 155.843 455.157 154.343 453.657C152.843 452.157 152 450.122 152 448V352C152 349.878 152.843 347.843 154.343 346.343C155.843 344.843 157.878 344 160 344C162.122 344 164.157 344.843 165.657 346.343C167.157 347.843 168 349.878 168 352V448Z" fill="#C45ED1"/>
<path d="M224 328C217.635 328 211.53 330.529 207.029 335.029C202.529 339.53 200 345.635 200 352V448C200 454.365 202.529 460.47 207.029 464.971C211.53 469.471 217.635 472 224 472C230.365 472 236.47 469.471 240.971 464.971C245.471 460.47 248 454.365 248 448V352C248 345.635 245.471 339.53 240.971 335.029C236.47 330.529 230.365 328 224 328ZM232 448C232 450.122 231.157 452.157 229.657 453.657C228.157 455.157 226.122 456 224 456C221.878 456 219.843 455.157 218.343 453.657C216.843 452.157 216 450.122 216 448V352C216 349.878 216.843 347.843 218.343 346.343C219.843 344.843 221.878 344 224 344C226.122 344 228.157 344.843 229.657 346.343C231.157 347.843 232 349.878 232 352V448Z" fill="#C45ED1"/>
<path d="M288 328C281.635 328 275.53 330.529 271.029 335.029C266.529 339.53 264 345.635 264 352V448C264 454.365 266.529 460.47 271.029 464.971C275.53 469.471 281.635 472 288 472C294.365 472 300.47 469.471 304.971 464.971C309.471 460.47 312 454.365 312 448V352C312 345.635 309.471 339.53 304.971 335.029C300.47 330.529 294.365 328 288 328ZM296 448C296 450.122 295.157 452.157 293.657 453.657C292.157 455.157 290.122 456 288 456C285.878 456 283.843 455.157 282.343 453.657C280.843 452.157 280 450.122 280 448V352C280 349.878 280.843 347.843 282.343 346.343C283.843 344.843 285.878 344 288 344C290.122 344 292.157 344.843 293.657 346.343C295.157 347.843 296 349.878 296 352V448Z" fill="#C45ED1"/>
<path d="M352 328C345.635 328 339.53 330.529 335.029 335.029C330.529 339.53 328 345.635 328 352V448C328 454.365 330.529 460.47 335.029 464.971C339.53 469.471 345.635 472 352 472C358.365 472 364.47 469.471 368.971 464.971C373.471 460.47 376 454.365 376 448V352C376 345.635 373.471 339.53 368.971 335.029C364.47 330.529 358.365 328 352 328ZM360 448C360 450.122 359.157 452.157 357.657 453.657C356.157 455.157 354.122 456 352 456C349.878 456 347.843 455.157 346.343 453.657C344.843 452.157 344 450.122 344 448V352C344 349.878 344.843 347.843 346.343 346.343C347.843 344.843 349.878 344 352 344C354.122 344 356.157 344.843 357.657 346.343C359.157 347.843 360 349.878 360 352V448Z" fill="#C45ED1"/>
<path d="M456.44 341.128L462.656 311.28C469.824 309.756 476.251 305.818 480.863 300.125C485.476 294.431 487.996 287.327 488 280V248C488 239.513 484.629 231.374 478.628 225.373C472.626 219.371 464.487 216 456 216H418.056L434.568 144.448C438.17 128.821 439.992 112.837 440 96.8C439.979 87.1898 436.562 77.8963 430.354 70.5604C424.146 63.2245 415.546 58.318 406.072 56.7074C396.597 55.0968 386.859 56.8856 378.575 61.7579C370.292 66.6303 363.996 74.2728 360.8 83.336L358.152 90.896L319.352 44.328L311.76 14.056C311.29 12.179 310.156 10.536 308.567 9.43136C306.979 8.32669 305.043 7.83522 303.12 8.04798L231.12 16.048C229.985 16.1736 228.891 16.5406 227.91 17.1244C226.928 17.7083 226.084 18.4953 225.432 19.4328C224.78 20.3702 224.337 21.4363 224.131 22.5594C223.925 23.6824 223.963 24.8365 224.24 25.944L231.632 55.544L208.504 117.216C207.984 118.614 207.865 120.13 208.16 121.592L227.04 216H216V204.648C216.005 199.284 214.319 194.055 211.183 189.703C208.046 185.352 203.619 182.1 198.528 180.408C196.626 179.777 194.971 178.562 193.799 176.936C192.627 175.31 191.998 173.356 192 171.352V168H200C202.122 168 204.157 167.157 205.657 165.657C207.157 164.157 208 162.122 208 160V128C208 125.878 207.157 123.843 205.657 122.343C204.157 120.843 202.122 120 200 120H88.0002C85.8785 120 83.8437 120.843 82.3434 122.343C80.8431 123.843 80.0002 125.878 80.0002 128V160C80.0002 162.122 80.8431 164.157 82.3434 165.657C83.8437 167.157 85.8785 168 88.0002 168H96.0002V171.352C96.0029 173.356 95.3734 175.31 94.2014 176.936C93.0294 178.562 91.3746 179.777 89.4722 180.408C84.382 182.1 79.9541 185.352 76.8177 189.703C73.6812 194.055 71.9956 199.284 72.0002 204.648V216H56.0002C47.5133 216 39.374 219.371 33.3728 225.373C27.3717 231.374 24.0002 239.513 24.0002 248V280C24.0049 287.327 26.5241 294.431 31.137 300.125C35.7499 305.818 42.177 309.756 49.3442 311.28L55.5602 341.128L10.3442 386.344C8.84448 387.844 8.00195 389.879 8.00195 392C8.00195 394.121 8.84448 396.156 10.3442 397.656L34.3442 421.656C35.8445 423.156 37.8789 423.998 40.0002 423.998C42.1216 423.998 44.156 423.156 45.6562 421.656L67.7362 399.576L78.4002 450.64C81.5893 465.692 89.839 479.198 101.775 488.907C113.712 498.616 128.614 503.943 144 504H368C383.387 503.943 398.289 498.616 410.225 488.907C422.161 479.198 430.411 465.692 433.6 450.64L444.24 399.576L466.32 421.656C467.82 423.156 469.855 423.998 471.976 423.998C474.098 423.998 476.132 423.156 477.632 421.656L501.632 397.656C503.132 396.156 503.975 394.121 503.975 392C503.975 389.879 503.132 387.844 501.632 386.344L456.44 341.128ZM427.312 312H446.16L442.912 327.6L427.312 312ZM399.24 72C405.811 72.0106 412.108 74.6281 416.751 79.2779C421.393 83.9276 424 90.2295 424 96.8C423.999 111.639 422.313 126.429 418.976 140.888L401.6 216H331.28L336.88 200H376C382.365 200 388.47 197.471 392.971 192.971C397.472 188.47 400 182.365 400 176C400 169.635 397.472 163.53 392.971 159.029C388.47 154.529 382.365 152 376 152H353.672L359.272 136H384C390.365 136 396.47 133.471 400.971 128.971C405.472 124.47 408 118.365 408 112C408 105.635 405.472 99.5303 400.971 95.0294C396.47 90.5285 390.365 88 384 88H376.128C377.909 83.3076 381.072 79.266 385.198 76.4092C389.325 73.5525 394.221 72.015 399.24 72ZM384 104C386.122 104 388.157 104.843 389.657 106.343C391.157 107.843 392 109.878 392 112C392 114.122 391.157 116.157 389.657 117.657C388.157 119.157 386.122 120 384 120H364.872L370.472 104H384ZM348.072 168H376C378.122 168 380.157 168.843 381.657 170.343C383.157 171.843 384 173.878 384 176C384 178.122 383.157 180.157 381.657 181.657C380.157 183.157 378.122 184 376 184H342.48L348.072 168ZM348.208 119.2L315.2 213.552L296.288 112.752L314.688 63.72L344.544 99.552L348.208 119.2ZM299.936 57.392L282.232 104.592L228.064 110.608L245.768 63.408L299.936 57.392ZM297.936 24.72L302.016 41.064L246.064 47.28L241.984 30.944L297.936 24.72ZM225.552 126.984L281.504 120.768L299.36 216H243.36L225.552 126.984ZM96.0002 136H192V152H96.0002V136ZM88.0002 204.648C87.9976 202.644 88.627 200.69 89.799 199.064C90.9711 197.438 92.6259 196.223 94.5282 195.592C99.6185 193.9 104.046 190.648 107.183 186.296C110.319 181.945 112.005 176.716 112 171.352V168H176V171.352C175.996 176.716 177.681 181.945 180.818 186.296C183.954 190.648 188.382 193.9 193.472 195.592C195.375 196.223 197.029 197.438 198.201 199.064C199.373 200.69 200.003 202.644 200 204.648V216H88.0002V204.648ZM40.0002 280V248C40.0002 243.757 41.686 239.687 44.6865 236.686C47.6871 233.686 51.7568 232 56.0002 232H456C460.244 232 464.313 233.686 467.314 236.686C470.315 239.687 472 243.757 472 248V280C472 284.243 470.315 288.313 467.314 291.314C464.313 294.314 460.244 296 456 296H411.312L370.624 255.312C365.942 250.629 359.591 247.999 352.968 247.999C346.346 247.999 339.995 250.629 335.312 255.312C330.63 259.995 327.999 266.346 327.999 272.968C327.999 279.59 330.63 285.941 335.312 290.624L340.688 296H171.312L176.68 290.632C181.364 285.95 183.996 279.6 183.998 272.978C183.999 266.355 181.37 260.004 176.688 255.32C172.007 250.636 165.656 248.004 159.034 248.003C152.412 248.001 146.06 250.63 141.376 255.312L100.688 296H56.0002C51.7568 296 47.6871 294.314 44.6865 291.314C41.686 288.313 40.0002 284.243 40.0002 280ZM65.8402 312H84.6882L69.0882 327.6L65.8402 312ZM40.0002 404.688L27.3122 392L152.688 266.624C153.522 265.791 154.511 265.131 155.6 264.681C156.689 264.231 157.856 263.999 159.034 264C160.212 264.001 161.379 264.234 162.467 264.685C163.555 265.137 164.544 265.798 165.376 266.632C166.209 267.466 166.869 268.455 167.319 269.544C167.769 270.633 168.001 271.799 168 272.978C167.999 274.156 167.766 275.322 167.315 276.411C166.863 277.499 166.202 278.487 165.368 279.32L40.0002 404.688ZM417.96 447.376C415.531 458.838 409.248 469.122 400.157 476.514C391.066 483.906 379.717 487.96 368 488H144C132.283 487.96 120.934 483.906 111.843 476.514C102.752 469.122 96.4692 458.838 94.0402 447.376L81.2402 386.048L155.312 312H356.688L430.736 386.048L417.96 447.376ZM472 404.688L346.624 279.312C345.368 278.057 344.513 276.458 344.167 274.717C343.821 272.976 343.999 271.171 344.679 269.532C345.36 267.892 346.511 266.491 347.988 265.506C349.465 264.522 351.201 263.997 352.976 264C355.351 264.008 357.627 264.95 359.312 266.624L484.688 392L472 404.688Z" fill="#C45ED1"/>
</svg>
