<svg width="512" height="512" viewBox="0 0 512 512" fill="none" xmlns="http://www.w3.org/2000/svg">
<path d="M496 176H224C219.584 176 216 179.584 216 184V256H189.256C159.104 256 130.76 267.4 108.928 288H88V280C88 275.584 84.416 272 80 272H16C11.584 272 8 275.584 8 280V408C8 412.416 11.584 416 16 416H80C84.416 416 88 412.416 88 408V400H108.928C130.76 420.6 159.104 432 189.256 432H304C317.232 432 328 421.232 328 408C328 405.184 327.424 402.512 326.528 400H336C349.232 400 360 389.232 360 376C360 372.84 359.352 369.84 358.24 367.072C368.44 364.304 376 355.064 376 344C376 330.768 365.232 320 352 320H496C500.416 320 504 316.416 504 312V184C504 179.584 500.416 176 496 176ZM72 400H24V288H72V296V392V400ZM88 304H104V384H88V304ZM360 344C360 348.408 356.408 352 352 352H240V368H336C340.408 368 344 371.592 344 376C344 380.408 340.408 384 336 384H240V400H304C308.408 400 312 403.592 312 408C312 412.408 308.408 416 304 416H189.256C163.296 416 138.84 406.304 120 388.616V299.384C138.832 281.696 163.296 272 189.256 272H216V288H200V304H320C324.408 304 328 307.592 328 312C328 316.408 324.408 320 320 320H240V336H352C356.408 336 360 339.592 360 344ZM488 304H342.528C339.216 294.712 330.416 288 320 288H232V192H488V304Z" fill="#C45ED1"/>
<path d="M344 288H352V296H368V288H376C380.416 288 384 284.416 384 280V248C384 243.584 380.416 240 376 240H352V224H368V232H384V216C384 211.584 380.416 208 376 208H368V200H352V208H344C339.584 208 336 211.584 336 216V248C336 252.416 339.584 256 344 256H368V272H352V264H336V280C336 284.416 339.584 288 344 288Z" fill="#C45ED1"/>
<path d="M256 280H320V264H264V232H320V216H256C251.584 216 248 219.584 248 224V272C248 276.416 251.584 280 256 280Z" fill="#C45ED1"/>
<path d="M472 272V224C472 219.584 468.416 216 464 216H400V232H456V264H400V280H464C468.416 280 472 276.416 472 272Z" fill="#C45ED1"/>
<path d="M16 152H136V168C136 170.912 137.576 173.584 140.12 175C141.336 175.664 142.664 176 144 176C145.472 176 146.944 175.592 148.24 174.784L212.24 134.784C214.576 133.32 216 130.76 216 128C216 125.24 214.576 122.68 212.24 121.216L148.24 81.2159C145.776 79.6719 142.664 79.5839 140.12 81.0079C137.576 82.4159 136 85.0879 136 87.9999V104H16C11.584 104 8 107.584 8 112V144C8 148.416 11.584 152 16 152ZM24 120H144C148.416 120 152 116.416 152 112V102.432L192.904 128L152 153.568V144C152 139.584 148.416 136 144 136H24V120Z" fill="#C45ED1"/>
</svg>
