<svg width="512" height="512" viewBox="0 0 512 512" fill="none" xmlns="http://www.w3.org/2000/svg">
<path d="M480 456H464V276.608C471.125 273.498 477.19 268.38 481.452 261.878C485.714 255.377 487.99 247.774 488 240V208C488 206.943 487.791 205.896 487.384 204.92L451.488 118.776C449.675 114.396 446.601 110.653 442.657 108.022C438.713 105.391 434.077 103.991 429.336 104H416V32C416 25.6348 413.471 19.5303 408.971 15.0294C404.47 10.5286 398.365 8 392 8H120C113.635 8 107.53 10.5286 103.029 15.0294C98.5286 19.5303 96 25.6348 96 32V104H82.664C77.9244 103.992 73.289 105.391 69.3453 108.02C65.4017 110.649 62.3274 114.39 60.512 118.768L24.616 204.92C24.2092 205.896 23.9998 206.943 24 208V240C24.0116 249.218 27.2007 258.149 33.0297 265.29C38.8588 272.431 46.9713 277.343 56 279.2V456H32C25.6348 456 19.5303 458.529 15.0294 463.029C10.5286 467.53 8 473.635 8 480C8 486.365 10.5286 492.47 15.0294 496.971C19.5303 501.471 25.6348 504 32 504H480C486.365 504 492.47 501.471 496.971 496.971C501.471 492.47 504 486.365 504 480C504 473.635 501.471 467.53 496.971 463.029C492.47 458.529 486.365 456 480 456ZM448 264C441.635 264 435.53 261.471 431.029 256.971C426.529 252.47 424 246.365 424 240V216H472V240C472 246.365 469.471 252.47 464.971 256.971C460.47 261.471 454.365 264 448 264ZM173.752 120L153.752 200H107.104L133.768 120H173.752ZM378.232 120L404.896 200H358.12C349.616 168.656 340.968 135.376 337.536 120H378.232ZM321.256 120C324.744 137.16 334.904 175.472 341.536 200H295.36L288.696 120H321.256ZM272.64 120L279.304 200H232.696L239.36 120H272.64ZM216.64 200H170.24L190.24 120H223.296L216.64 200ZM104 216H152V240C152 246.365 149.471 252.47 144.971 256.971C140.47 261.471 134.365 264 128 264C121.635 264 115.53 261.471 111.029 256.971C106.529 252.47 104 246.365 104 240V216ZM168 216H216V240C216 246.365 213.471 252.47 208.971 256.971C204.47 261.471 198.365 264 192 264C185.635 264 179.53 261.471 175.029 256.971C170.529 252.47 168 246.365 168 240V216ZM232 216H280V240C280 246.365 277.471 252.47 272.971 256.971C268.47 261.471 262.365 264 256 264C249.635 264 243.53 261.471 239.029 256.971C234.529 252.47 232 246.365 232 240V216ZM296 216H344V240C344 246.365 341.471 252.47 336.971 256.971C332.47 261.471 326.365 264 320 264C313.635 264 307.53 261.471 303.029 256.971C298.529 252.47 296 246.365 296 240V216ZM360 216H408V240C408 246.365 405.471 252.47 400.971 256.971C396.47 261.471 390.365 264 384 264C377.635 264 371.53 261.471 367.029 256.971C362.529 252.47 360 246.365 360 240V216ZM436.72 124.928L468 200H421.768L395.104 120H429.336C430.916 120.001 432.46 120.469 433.774 121.346C435.088 122.223 436.113 123.469 436.72 124.928ZM112 32C112 29.8783 112.843 27.8434 114.343 26.3431C115.843 24.8429 117.878 24 120 24H392C394.122 24 396.157 24.8429 397.657 26.3431C399.157 27.8434 400 29.8783 400 32V104H112V32ZM75.288 124.92C75.8954 123.464 76.9197 122.22 78.2321 121.345C79.5445 120.469 81.0864 120.001 82.664 120H116.896L90.232 200H44L75.288 124.92ZM40 240V216H88V240C88 246.365 85.4714 252.47 80.9706 256.971C76.4697 261.471 70.3652 264 64 264C57.6348 264 51.5303 261.471 47.0294 256.971C42.5286 252.47 40 246.365 40 240ZM72 279.2C81.628 277.183 90.1736 271.686 96 263.76C99.6792 268.795 104.495 272.891 110.055 275.715C115.615 278.539 121.764 280.01 128 280.01C134.236 280.01 140.385 278.539 145.945 275.715C151.505 272.891 156.321 268.795 160 263.76C163.679 268.795 168.495 272.891 174.055 275.715C179.615 278.539 185.764 280.01 192 280.01C198.236 280.01 204.385 278.539 209.945 275.715C215.505 272.891 220.321 268.795 224 263.76C227.679 268.795 232.495 272.891 238.055 275.715C243.615 278.539 249.764 280.01 256 280.01C262.236 280.01 268.385 278.539 273.945 275.715C279.505 272.891 284.321 268.795 288 263.76C291.679 268.795 296.495 272.891 302.055 275.715C307.615 278.539 313.764 280.01 320 280.01C326.236 280.01 332.385 278.539 337.945 275.715C343.505 272.891 348.321 268.795 352 263.76C355.679 268.795 360.495 272.891 366.055 275.715C371.615 278.539 377.764 280.01 384 280.01C390.236 280.01 396.385 278.539 401.945 275.715C407.505 272.891 412.321 268.795 416 263.76C419.693 268.78 424.511 272.865 430.069 275.685C435.626 278.506 441.768 279.983 448 280V456H232V342.528C237.333 340.649 241.83 336.944 244.693 332.068C247.556 327.192 248.601 321.459 247.643 315.887C246.685 310.314 243.785 305.26 239.458 301.62C235.131 297.98 229.655 295.989 224 296H112C106.345 295.989 100.869 297.98 96.5421 301.62C92.2147 305.26 89.3151 310.314 88.3569 315.887C87.3987 321.459 88.4437 327.192 91.3069 332.068C94.17 336.944 98.6665 340.649 104 342.528V456H72V279.2ZM224 328H112C109.878 328 107.843 327.157 106.343 325.657C104.843 324.157 104 322.122 104 320C104 317.878 104.843 315.843 106.343 314.343C107.843 312.843 109.878 312 112 312H224C226.122 312 228.157 312.843 229.657 314.343C231.157 315.843 232 317.878 232 320C232 322.122 231.157 324.157 229.657 325.657C228.157 327.157 226.122 328 224 328ZM120 344H216V456H120V344ZM480 488H32C29.8783 488 27.8434 487.157 26.3431 485.657C24.8429 484.157 24 482.122 24 480C24 477.878 24.8429 475.843 26.3431 474.343C27.8434 472.843 29.8783 472 32 472H480C482.122 472 484.157 472.843 485.657 474.343C487.157 475.843 488 477.878 488 480C488 482.122 487.157 484.157 485.657 485.657C484.157 487.157 482.122 488 480 488Z" fill="#C45ED1"/>
<path d="M376 40H136C133.878 40 131.843 40.8429 130.343 42.3431C128.843 43.8434 128 45.8783 128 48V80C128 82.1217 128.843 84.1566 130.343 85.6569C131.843 87.1571 133.878 88 136 88H376C378.122 88 380.157 87.1571 381.657 85.6569C383.157 84.1566 384 82.1217 384 80V48C384 45.8783 383.157 43.8434 381.657 42.3431C380.157 40.8429 378.122 40 376 40ZM368 72H144V56H368V72Z" fill="#C45ED1"/>
<path d="M200 376H184V408H200V376Z" fill="#C45ED1"/>
<path d="M280 440H408C413.655 440.011 419.131 438.02 423.458 434.38C427.786 430.74 430.685 425.686 431.643 420.113C432.601 414.541 431.556 408.808 428.693 403.932C425.83 399.056 421.334 395.351 416 393.472V320C416 313.635 413.472 307.53 408.971 303.029C404.47 298.529 398.365 296 392 296H296C289.635 296 283.53 298.529 279.03 303.029C274.529 307.53 272 313.635 272 320V393.472C266.667 395.351 262.17 399.056 259.307 403.932C256.444 408.808 255.399 414.541 256.357 420.113C257.315 425.686 260.215 430.74 264.542 434.38C268.87 438.02 274.346 440.011 280 440ZM400 320V392H352V312H392C394.122 312 396.157 312.843 397.657 314.343C399.157 315.843 400 317.878 400 320ZM296 312H336V392H288V320C288 317.878 288.843 315.843 290.343 314.343C291.844 312.843 293.878 312 296 312ZM280 408H408C410.122 408 412.157 408.843 413.657 410.343C415.157 411.843 416 413.878 416 416C416 418.122 415.157 420.157 413.657 421.657C412.157 423.157 410.122 424 408 424H280C277.878 424 275.844 423.157 274.343 421.657C272.843 420.157 272 418.122 272 416C272 413.878 272.843 411.843 274.343 410.343C275.844 408.843 277.878 408 280 408Z" fill="#C45ED1"/>
</svg>
