<svg width="512" height="512" viewBox="0 0 512 512" fill="none" xmlns="http://www.w3.org/2000/svg">
<path d="M480 272H462.552L449.376 206.088C454.468 203.924 458.656 200.067 461.231 195.17C463.806 190.273 464.61 184.637 463.507 179.216C462.404 173.794 459.462 168.92 455.178 165.418C450.895 161.917 445.533 160.003 440 160H392V136C392 129.635 389.471 123.53 384.971 119.029C380.47 114.529 374.365 112 368 112H311.592C309.618 83.7482 297.003 57.2963 276.291 37.981C255.579 18.6656 228.313 7.92444 199.992 7.92444C171.671 7.92444 144.405 18.6656 123.693 37.981C102.981 57.2963 90.3657 83.7482 88.392 112H32C25.6348 112 19.5303 114.529 15.0294 119.029C10.5286 123.53 8 129.635 8 136V392C8 398.365 10.5286 404.47 15.0294 408.971C19.5303 413.471 25.6348 416 32 416H48.552C50.5171 431.481 58.0775 445.708 69.808 456H16C13.8783 456 11.8434 456.843 10.3431 458.343C8.84285 459.843 8 461.878 8 464V496C8 498.122 8.84285 500.157 10.3431 501.657C11.8434 503.157 13.8783 504 16 504H496C498.122 504 500.157 503.157 501.657 501.657C503.157 500.157 504 498.122 504 496V464C504 461.878 503.157 459.843 501.657 458.343C500.157 456.843 498.122 456 496 456H442.192C453.923 445.708 461.483 431.481 463.448 416H480C486.365 416 492.47 413.471 496.971 408.971C501.471 404.47 504 398.365 504 392V296C504 289.635 501.471 283.53 496.971 279.029C492.47 274.529 486.365 272 480 272ZM446.24 272H392V208H433.448L446.24 272ZM440 176C442.122 176 444.157 176.843 445.657 178.343C447.157 179.843 448 181.878 448 184C448 186.122 447.157 188.157 445.657 189.657C444.157 191.157 442.122 192 440 192H392V176H440ZM200 24C218.987 24 237.548 29.6303 253.335 40.1789C269.122 50.7275 281.426 65.7207 288.692 83.2624C295.958 100.804 297.86 120.106 294.155 138.729C290.451 157.351 281.308 174.456 267.882 187.882C254.456 201.308 237.351 210.451 218.729 214.155C200.106 217.86 180.804 215.958 163.262 208.692C145.721 201.426 130.728 189.122 120.179 173.335C109.63 157.548 104 138.987 104 120C104.028 94.5477 114.151 70.1457 132.148 52.1482C150.146 34.1506 174.548 24.0275 200 24ZM32 128H88.408C90.3817 156.252 102.997 182.704 123.709 202.019C144.421 221.334 171.687 232.076 200.008 232.076C228.329 232.076 255.595 221.334 276.307 202.019C297.019 182.704 309.634 156.252 311.608 128H368C370.122 128 372.157 128.843 373.657 130.343C375.157 131.843 376 133.878 376 136V272H24V136C24 133.878 24.8429 131.843 26.3431 130.343C27.8434 128.843 29.8783 128 32 128ZM376 304H24V288H376V304ZM24 392V320H376V348.712C365.468 352.996 356.265 360.004 349.333 369.016C342.401 378.028 337.99 388.722 336.552 400H175.448C173.511 384.539 165.995 370.316 154.312 360.006C142.628 349.695 127.582 344.005 112 344.005C96.4177 344.005 81.3716 349.695 69.6884 360.006C58.0052 370.316 50.4891 384.539 48.552 400H32C29.8783 400 27.8434 399.157 26.3431 397.657C24.8429 396.157 24 394.122 24 392ZM175.448 416H336.552C338.517 431.481 346.077 445.708 357.808 456H154.192C165.923 445.708 173.483 431.481 175.448 416ZM64 408C64 398.506 66.8152 389.226 72.0895 381.333C77.3638 373.439 84.8603 367.287 93.6312 363.654C102.402 360.021 112.053 359.07 121.364 360.922C130.675 362.774 139.228 367.346 145.941 374.059C152.654 380.772 157.226 389.325 159.078 398.636C160.93 407.947 159.979 417.598 156.346 426.369C152.713 435.14 146.561 442.636 138.667 447.911C130.774 453.185 121.494 456 112 456C99.2735 455.987 87.0719 450.926 78.0729 441.927C69.0739 432.928 64.0127 420.726 64 408ZM488 472V488H24V472H488ZM400 456C390.506 456 381.226 453.185 373.333 447.911C365.439 442.636 359.287 435.14 355.654 426.369C352.021 417.598 351.07 407.947 352.922 398.636C354.774 389.325 359.346 380.772 366.059 374.059C372.772 367.346 381.325 362.774 390.636 360.922C399.947 359.07 409.598 360.021 418.369 363.654C427.14 367.287 434.636 373.439 439.911 381.333C445.185 389.226 448 398.506 448 408C447.987 420.726 442.926 432.928 433.927 441.927C424.928 450.926 412.726 455.987 400 456ZM480 400H463.448C462.451 391.645 459.805 383.572 455.662 376.248C451.519 368.925 445.963 362.497 439.316 357.339C432.669 352.18 425.063 348.394 416.941 346.199C408.818 344.003 400.341 343.444 392 344.552V288H480C482.122 288 484.157 288.843 485.657 290.343C487.157 291.843 488 293.878 488 296V304H464C461.878 304 459.843 304.843 458.343 306.343C456.843 307.843 456 309.878 456 312V344C456 346.122 456.843 348.157 458.343 349.657C459.843 351.157 461.878 352 464 352H488V392C488 394.122 487.157 396.157 485.657 397.657C484.157 399.157 482.122 400 480 400ZM488 320V336H472V320H488Z" fill="#C45ED1"/>
<path d="M200 200C215.823 200 231.29 195.308 244.446 186.518C257.602 177.727 267.855 165.233 273.91 150.615C279.965 135.997 281.55 119.911 278.463 104.393C275.376 88.8743 267.757 74.6197 256.569 63.4315C245.38 52.2433 231.126 44.624 215.607 41.5372C200.089 38.4504 184.003 40.0346 169.385 46.0896C154.767 52.1447 142.273 62.3985 133.482 75.5544C124.692 88.7103 120 104.178 120 120C120.023 141.21 128.459 161.545 143.457 176.543C158.455 191.541 178.79 199.977 200 200ZM200 56C212.658 56 225.032 59.7535 235.556 66.7859C246.081 73.8184 254.284 83.8138 259.128 95.5083C263.972 107.203 265.24 120.071 262.77 132.486C260.301 144.901 254.205 156.304 245.255 165.255C236.304 174.205 224.901 180.301 212.486 182.77C200.071 185.24 187.203 183.972 175.508 179.128C163.814 174.284 153.818 166.081 146.786 155.556C139.754 145.032 136 132.658 136 120C136.019 103.032 142.768 86.7644 154.766 74.7662C166.764 62.768 183.032 56.0191 200 56Z" fill="#C45ED1"/>
<path d="M184 160H184.264C185.359 159.964 186.436 159.704 187.427 159.234C188.418 158.765 189.302 158.097 190.024 157.272L246.024 93.272L233.976 82.744L183.576 140.304L165.624 122.352L154.312 133.664L178.312 157.664C179.059 158.409 179.946 158.999 180.922 159.4C181.898 159.801 182.944 160.005 184 160Z" fill="#C45ED1"/>
<path d="M112 376C105.671 376 99.4841 377.877 94.2218 381.393C88.9594 384.909 84.8579 389.907 82.4359 395.754C80.0139 401.601 79.3802 408.035 80.6149 414.243C81.8496 420.45 84.8973 426.152 89.3726 430.627C93.8479 435.103 99.5497 438.15 105.757 439.385C111.965 440.62 118.399 439.986 124.246 437.564C130.093 435.142 135.091 431.041 138.607 425.778C142.123 420.516 144 414.329 144 408C144 399.513 140.629 391.374 134.627 385.373C128.626 379.371 120.487 376 112 376ZM112 424C108.836 424 105.742 423.062 103.111 421.304C100.48 419.545 98.4289 417.047 97.2179 414.123C96.0069 411.199 95.6901 407.982 96.3075 404.879C96.9248 401.775 98.4487 398.924 100.686 396.686C102.924 394.449 105.775 392.925 108.879 392.307C111.982 391.69 115.199 392.007 118.123 393.218C121.047 394.429 123.545 396.48 125.304 399.111C127.062 401.742 128 404.835 128 408C128 412.243 126.314 416.313 123.314 419.314C120.313 422.314 116.243 424 112 424Z" fill="#C45ED1"/>
<path d="M400 376C393.671 376 387.484 377.877 382.222 381.393C376.959 384.909 372.858 389.907 370.436 395.754C368.014 401.601 367.38 408.035 368.615 414.243C369.85 420.45 372.897 426.152 377.373 430.627C381.848 435.103 387.55 438.15 393.757 439.385C399.965 440.62 406.399 439.986 412.246 437.564C418.093 435.142 423.091 431.041 426.607 425.778C430.123 420.516 432 414.329 432 408C432 399.513 428.629 391.374 422.627 385.373C416.626 379.371 408.487 376 400 376ZM400 424C396.836 424 393.742 423.062 391.111 421.304C388.48 419.545 386.429 417.047 385.218 414.123C384.007 411.199 383.69 407.982 384.307 404.879C384.925 401.775 386.449 398.924 388.686 396.686C390.924 394.449 393.775 392.925 396.879 392.307C399.982 391.69 403.199 392.007 406.123 393.218C409.047 394.429 411.545 396.48 413.304 399.111C415.062 401.742 416 404.835 416 408C416 412.243 414.314 416.313 411.314 419.314C408.313 422.314 404.243 424 400 424Z" fill="#C45ED1"/>
<path d="M280 240H360V256H280V240Z" fill="#C45ED1"/>
<path d="M312 208H360V224H312V208Z" fill="#C45ED1"/>
</svg>
