<svg width="512" height="512" viewBox="0 0 512 512" fill="none" xmlns="http://www.w3.org/2000/svg">
<path d="M368 432H336V448H368V432Z" fill="#C45ED1"/>
<path d="M144.624 324C135.208 326.1 126.648 331.002 120.07 338.06C113.493 345.119 109.207 354.003 107.776 363.544L88.0881 494.816C87.9178 495.954 87.995 497.115 88.3144 498.221C88.6338 499.326 89.188 500.35 89.939 501.222C90.69 502.093 91.6203 502.793 92.6663 503.272C93.7123 503.752 94.8494 504 96.0001 504H416C417.151 504 418.288 503.752 419.334 503.272C420.38 502.793 421.31 502.093 422.061 501.222C422.812 500.35 423.366 499.326 423.686 498.221C424.005 497.115 424.082 495.954 423.912 494.816L404.224 363.552C402.79 353.979 398.482 345.067 391.871 337.997C385.259 330.927 376.656 326.032 367.2 323.96L366.808 323.008C357.004 293.667 352.003 262.935 352 232V231.936C353.08 229.344 354.04 226.688 354.912 224H384C390.365 224 396.47 221.471 400.971 216.971C405.472 212.47 408 206.365 408 200V168C407.98 163.054 406.431 158.235 403.567 154.202C400.703 150.17 396.663 147.121 392 145.472V144C392 107.931 377.672 73.3384 352.167 47.8335C326.662 22.3285 292.07 8 256 8C219.931 8 185.339 22.3285 159.834 47.8335C134.329 73.3384 120 107.931 120 144V145.472C115.337 147.121 111.297 150.17 108.433 154.202C105.569 158.235 104.021 163.054 104 168V200C104 206.365 106.529 212.47 111.03 216.971C115.53 221.471 121.635 224 128 224V248C128 250.122 128.843 252.157 130.343 253.657C131.844 255.157 133.878 256 136 256H158.864C156.969 278.598 152.456 300.899 145.416 322.456L144.624 324ZM256 280C233.6 279.994 212.054 271.405 195.792 256H240V240H182.336C172.978 225.741 167.995 209.056 168 192V160H224C225.599 160.001 227.162 159.523 228.487 158.628C229.811 157.732 230.837 156.46 231.432 154.976L240 133.536L248.568 154.976C249.163 156.46 250.189 157.732 251.514 158.628C252.838 159.523 254.401 160.001 256 160H296C298.122 160 300.156 159.156 301.656 157.656L312 147.312L322.344 157.656C323.844 159.156 325.879 160 328 160H344V192C343.973 215.331 334.692 237.698 318.195 254.195C301.698 270.692 279.331 279.972 256 280ZM289.992 340.312L256 465.432L222.232 340.632L236.8 358.752C239.109 361.637 242.038 363.967 245.369 365.567C248.7 367.168 252.348 367.999 256.044 367.999C259.74 367.999 263.388 367.168 266.719 365.567C270.05 363.967 272.979 361.637 275.288 358.752L289.992 340.312ZM202.976 330.592L232.8 440.712L185.304 360.04L202.976 330.592ZM309.28 330.328L310.12 330.464L334.12 360.496L277.176 448.544L309.28 330.328ZM288 317.184L262.76 348.752C261.922 349.722 260.885 350.5 259.719 351.034C258.553 351.567 257.286 351.843 256.004 351.843C254.722 351.843 253.455 351.567 252.289 351.034C251.123 350.5 250.086 349.722 249.248 348.752L224 317.184V290.912C244.794 297.694 267.206 297.694 288 290.912V317.184ZM208 284.168V313.224L162.664 320.776C168.954 299.963 173.041 278.547 174.856 256.88C183.899 268.169 195.185 277.46 208 284.168ZM123.6 365.928C124.592 359.238 127.683 353.036 132.428 348.216C137.173 343.396 143.326 340.208 150 339.112L182.464 333.704L169.16 355.88C168.425 357.117 168.037 358.529 168.037 359.968C168.037 361.407 168.425 362.819 169.16 364.056L242.008 488H105.288L123.6 365.928ZM388.4 365.928L406.712 488H270.712L350.712 364.344C351.624 362.934 352.069 361.273 351.984 359.596C351.9 357.919 351.289 356.311 350.24 355L333.776 334.4L362.016 339.104C368.688 340.204 374.839 343.394 379.58 348.215C384.322 353.036 387.411 359.239 388.4 365.928ZM349.344 320.8L304 313.224V284.168C316.764 277.49 328.012 268.249 337.04 257.024C338.85 278.661 342.975 300.042 349.344 320.8ZM392 200C392 202.122 391.157 204.157 389.657 205.657C388.157 207.157 386.122 208 384 208H358.64C359.503 202.709 359.958 197.36 360 192V160H384C386.122 160 388.157 160.843 389.657 162.343C391.157 163.843 392 165.878 392 168V200ZM256 24C287.815 24.036 318.317 36.6904 340.813 59.1869C363.31 81.6835 375.964 112.185 376 144H360V120H344V144H331.312L317.656 130.344C316.156 128.844 314.121 128.002 312 128.002C309.879 128.002 307.844 128.844 306.344 130.344L292.688 144H261.416L247.432 109.024C246.84 107.537 245.815 106.262 244.49 105.363C243.165 104.465 241.601 103.985 240 103.985C238.399 103.985 236.835 104.465 235.51 105.363C234.185 106.262 233.161 107.537 232.568 109.024L218.584 144H168V120H152V144H136C136.036 112.185 148.69 81.6835 171.187 59.1869C193.684 36.6904 224.185 24.036 256 24ZM120 200V168C120 165.878 120.843 163.843 122.343 162.343C123.844 160.843 125.878 160 128 160H152V192C152.042 197.36 152.497 202.709 153.36 208H128C125.878 208 123.844 207.157 122.343 205.657C120.843 204.157 120 202.122 120 200ZM144 240V224H157.088C157.952 226.664 158.904 229.288 159.968 231.856C159.968 234.568 159.896 237.288 159.808 240H144Z" fill="#C45ED1"/>
</svg>
