<svg width="512" height="512" viewBox="0 0 512 512" fill="none" xmlns="http://www.w3.org/2000/svg">
<path d="M328 192.968C328.001 188.029 326.537 183.202 323.793 179.095C321.05 174.989 317.15 171.789 312.587 169.899C308.025 168.009 303.004 167.514 298.161 168.478C293.317 169.441 288.868 171.82 285.376 175.312L224 236.688L218.624 231.312C213.942 226.629 207.591 223.999 200.968 223.999C194.346 223.999 187.995 226.629 183.312 231.312C178.63 235.995 175.999 242.346 175.999 248.968C175.999 252.247 176.645 255.494 177.9 258.523C179.155 261.553 180.994 264.305 183.312 266.624L204.688 288C209.81 293.122 216.757 295.999 224 295.999C231.244 295.999 238.19 293.122 243.312 288L320.688 210.624C323.014 208.311 324.858 205.559 326.113 202.529C327.368 199.498 328.01 196.248 328 192.968ZM309.376 199.312L232 276.688C229.83 278.715 226.97 279.843 224 279.843C221.03 279.843 218.171 278.715 216 276.688L194.624 255.312C193.791 254.479 193.13 253.49 192.68 252.401C192.229 251.313 191.997 250.146 191.997 248.968C191.997 247.79 192.229 246.623 192.68 245.535C193.13 244.446 193.791 243.457 194.624 242.624C195.457 241.791 196.447 241.13 197.535 240.679C198.624 240.228 199.79 239.996 200.968 239.996C202.147 239.996 203.313 240.228 204.402 240.679C205.49 241.13 206.479 241.791 207.312 242.624L218.344 253.656C219.845 255.156 221.879 255.998 224 255.998C226.122 255.998 228.156 255.156 229.656 253.656L296.688 186.624C298.371 184.941 300.653 183.996 303.032 183.996C305.412 183.996 307.694 184.941 309.376 186.624C311.059 188.307 312.004 190.589 312.004 192.968C312.004 195.347 311.059 197.629 309.376 199.312Z" fill="#C45ED1"/>
<path d="M376 232C376 208.266 368.962 185.066 355.776 165.332C342.591 145.598 323.849 130.217 301.922 121.135C279.995 112.052 255.867 109.676 232.589 114.306C209.311 118.936 187.93 130.365 171.147 147.147C154.365 163.93 142.936 185.311 138.306 208.589C133.676 231.867 136.052 255.995 145.135 277.922C154.217 299.849 169.598 318.591 189.332 331.776C209.066 344.962 232.266 352 256 352C287.815 351.964 318.317 339.31 340.813 316.813C363.31 294.317 375.964 263.815 376 232ZM152 232C152 211.431 158.1 191.323 169.527 174.221C180.955 157.118 197.197 143.788 216.201 135.917C235.204 128.045 256.115 125.986 276.289 129.998C296.463 134.011 314.994 143.916 329.539 158.461C344.084 173.006 353.989 191.537 358.002 211.711C362.015 231.885 359.955 252.796 352.084 271.799C344.212 290.803 330.882 307.045 313.779 318.473C296.677 329.901 276.569 336 256 336C228.427 335.968 201.993 325.001 182.496 305.504C162.999 286.007 152.032 259.573 152 232Z" fill="#C45ED1"/>
<path d="M251.592 502.912C252.816 503.626 254.207 504.002 255.624 504.002C257.041 504.002 258.433 503.626 259.656 502.912C319.203 468.027 368.609 418.198 402.986 358.356C437.362 298.514 455.518 230.733 455.656 161.72V120C455.656 118.56 455.268 117.146 454.531 115.909C453.795 114.671 452.738 113.655 451.472 112.968L259.848 8.96807C258.678 8.3337 257.368 8.00146 256.036 8.00146C254.705 8.00146 253.395 8.3337 252.224 8.96807L59.8483 112.968C58.5798 113.655 57.5205 114.671 56.7826 115.911C56.0446 117.15 55.6555 118.566 55.6563 120.008V161.728C55.7869 230.734 73.9326 298.51 108.298 358.35C142.663 418.191 192.057 468.021 251.592 502.912ZM71.6243 124.8L256 25.0961L439.624 124.8V161.76C439.492 227.18 422.489 291.461 390.257 348.39C358.024 405.319 311.653 452.972 255.624 486.744C199.593 452.975 153.219 405.322 120.987 348.393C88.7543 291.463 71.7523 227.181 71.6243 161.76V124.8Z" fill="#C45ED1"/>
<path d="M251.88 462.856C253.124 463.604 254.548 463.999 256 463.999C257.452 463.999 258.876 463.604 260.12 462.856C309.99 432.741 351.264 390.29 379.967 339.594C408.67 288.898 423.835 231.665 424 173.408V144C424 142.568 423.615 141.162 422.886 139.93C422.157 138.697 421.111 137.682 419.856 136.992L259.856 48.9921C258.675 48.3422 257.348 48.0015 256 48.0015C254.652 48.0015 253.325 48.3422 252.144 48.9921L92.144 136.992C90.8892 137.682 89.8428 138.697 89.1138 139.93C88.3849 141.162 88.0002 142.568 88 144V173.408C88.1669 231.665 103.332 288.898 132.035 339.593C160.738 390.289 202.011 432.739 251.88 462.856ZM104 148.728L256 65.1201L408 148.72V173.408C407.845 228.088 393.819 281.835 367.235 329.619C340.652 377.402 302.379 417.66 256 446.624C209.624 417.657 171.354 377.398 144.771 329.615C118.187 281.833 104.16 228.087 104 173.408V148.728Z" fill="#C45ED1"/>
</svg>
