<svg width="512" height="512" viewBox="0 0 512 512" fill="none" xmlns="http://www.w3.org/2000/svg">
<path d="M433.6 204.416C431.959 194.453 426.904 185.372 419.301 178.728C411.698 172.084 402.02 168.291 391.928 168H304V120H368C393.452 119.972 417.854 109.849 435.851 91.8518C453.849 73.8543 463.972 49.4523 464 24V16C464 13.8783 463.157 11.8434 461.656 10.3431C460.156 8.84285 458.121 8 456 8H55.9996C53.8779 8 51.843 8.84285 50.3428 10.3431C48.8425 11.8434 47.9996 13.8783 47.9996 16V24C48.0271 49.4523 58.1502 73.8543 76.1478 91.8518C94.1453 109.849 118.547 119.972 144 120H208V168H120.072C109.979 168.291 100.302 172.084 92.6986 178.728C85.0957 185.372 80.0405 194.453 78.3996 204.416L40.8636 401.392C39.5047 408.262 39.6837 415.348 41.3877 422.141C43.0918 428.934 46.2787 435.265 50.7196 440.68C54.5662 445.424 59.4152 449.258 64.9188 451.907C70.4224 454.556 76.444 455.954 82.5516 456H87.9996V496C87.9996 498.122 88.8425 500.157 90.3428 501.657C91.843 503.157 93.8779 504 95.9996 504H416C418.121 504 420.156 503.157 421.656 501.657C423.157 500.157 424 498.122 424 496V456H429.448C435.555 455.954 441.577 454.556 447.08 451.907C452.584 449.258 457.433 445.424 461.28 440.68C465.721 435.264 468.908 428.931 470.612 422.137C472.317 415.343 472.495 408.255 471.136 401.384L433.6 204.416ZM63.9996 24H448C447.976 45.2102 439.54 65.545 424.542 80.5428C409.545 95.5407 389.21 103.977 368 104H144C122.789 103.977 102.455 95.5407 87.4568 80.5428C72.4589 65.545 64.0229 45.2102 63.9996 24ZM224 120H288V168H224V120ZM408 488H104V456H408V488ZM448.96 430.48C446.626 433.424 443.661 435.808 440.284 437.455C436.908 439.103 433.205 439.972 429.448 440H82.5516C78.7945 439.972 75.0915 439.103 71.7148 437.455C68.3381 435.808 65.3737 433.424 63.0396 430.48C60.1076 426.874 58.0086 422.665 56.8925 418.154C55.7764 413.643 55.671 408.941 56.5836 404.384L94.1036 207.416C95.0467 201.108 98.1523 195.323 102.889 191.052C107.626 186.781 113.7 184.288 120.072 184H391.928C398.299 184.288 404.373 186.781 409.11 191.052C413.847 195.323 416.952 201.108 417.896 207.416L455.416 404.376C456.329 408.934 456.224 413.638 455.108 418.15C453.992 422.663 451.892 426.873 448.96 430.48Z" fill="#C45ED1"/>
<path d="M256 216C237.013 216 218.452 221.63 202.665 232.179C186.878 242.728 174.574 257.721 167.308 275.262C160.042 292.804 158.14 312.106 161.845 330.729C165.549 349.351 174.692 366.456 188.118 379.882C201.544 393.308 218.649 402.451 237.271 406.155C255.894 409.86 275.196 407.958 292.738 400.692C310.279 393.426 325.272 381.122 335.821 365.335C346.37 349.548 352 330.987 352 312C351.973 286.548 341.849 262.146 323.852 244.148C305.854 226.151 281.452 216.028 256 216ZM264 391.592V376H248V391.592C229.649 389.724 212.505 381.58 199.463 368.538C186.42 355.495 178.277 338.351 176.408 320H192V304H176.408C178.277 285.649 186.42 268.505 199.463 255.462C212.505 242.42 229.649 234.276 248 232.408V248H264V232.408C282.351 234.276 299.495 242.42 312.538 255.462C325.58 268.505 333.724 285.649 335.592 304H320V320H335.592C333.724 338.351 325.58 355.495 312.538 368.538C299.495 381.58 282.351 389.724 264 391.592Z" fill="#C45ED1"/>
<path d="M290.344 266.344L266.28 290.4C263.078 288.834 259.564 288.014 256 288C251.253 288 246.613 289.407 242.666 292.044C238.72 294.682 235.643 298.43 233.827 302.815C232.01 307.201 231.535 312.026 232.461 316.682C233.387 321.337 235.673 325.614 239.029 328.97C242.386 332.327 246.662 334.613 251.318 335.539C255.973 336.465 260.799 335.989 265.184 334.173C269.57 332.356 273.318 329.28 275.955 325.333C278.592 321.387 280 316.747 280 312C279.986 308.436 279.166 304.921 277.6 301.72L301.664 277.656L290.344 266.344ZM256 320C254.418 320 252.871 319.531 251.555 318.652C250.24 317.772 249.214 316.523 248.609 315.061C248.003 313.599 247.845 311.991 248.154 310.439C248.462 308.887 249.224 307.462 250.343 306.343C251.462 305.224 252.887 304.462 254.439 304.153C255.991 303.845 257.6 304.003 259.061 304.609C260.523 305.214 261.773 306.24 262.652 307.555C263.531 308.871 264 310.418 264 312C264 314.121 263.157 316.156 261.657 317.657C260.157 319.157 258.122 320 256 320Z" fill="#C45ED1"/>
<path d="M400 40H328V56H400V40Z" fill="#C45ED1"/>
<path d="M312 40H296V56H312V40Z" fill="#C45ED1"/>
</svg>
