<svg width="512" height="512" viewBox="0 0 512 512" fill="none" xmlns="http://www.w3.org/2000/svg">
<path d="M425.68 241.98H242.82C239.51 241.98 236.82 244.67 236.82 247.98V372.54C236.82 375.85 239.51 378.54 242.82 378.54H425.68C428.99 378.54 431.68 375.85 431.68 372.54V247.98C431.68 244.67 429 241.98 425.68 241.98ZM248.82 253.98H328.25V366.54H248.82V253.98ZM419.68 366.54H340.25V253.98H419.68V366.54ZM170.67 368.78V351.79C170.67 348.48 173.36 345.79 176.67 345.79C179.98 345.79 182.67 348.48 182.67 351.79V368.78C182.67 372.09 179.98 374.78 176.67 374.78C173.36 374.78 170.67 372.09 170.67 368.78ZM486.55 165.92V121.63C486.55 118.32 483.86 115.63 480.55 115.63H465V57.95C465 34.27 445.74 15 422.05 15H89.95C66.26 15 47 34.27 47 57.95V115.64H31.45C28.14 115.64 25.45 118.33 25.45 121.64V165.93C25.45 180.3 34.39 192.61 47 197.61V447.07C34.83 448.8 25.45 459.28 25.45 471.91C25.45 485.75 36.7099 497.01 50.5499 497.01H461.46C475.3 497.01 486.56 485.75 486.56 471.91C486.56 459.27 477.17 448.79 465.01 447.07V197.6C477.61 192.6 486.55 180.29 486.55 165.92ZM474.55 165.92C474.55 178.09 464.65 187.99 452.48 187.99C440.31 187.99 430.41 178.09 430.41 165.92V127.63H474.55V165.92ZM93.58 127.63H137.72V165.92C137.72 178.09 127.82 187.99 115.65 187.99C103.48 187.99 93.58 178.09 93.58 165.92V127.63ZM193.86 165.92C193.86 178.09 183.96 187.99 171.79 187.99C159.62 187.99 149.72 178.09 149.72 165.92V127.63H193.86V165.92ZM205.86 127.63H250V165.92C250 178.09 240.1 187.99 227.93 187.99C215.76 187.99 205.86 178.09 205.86 165.92V127.63ZM306.14 165.92C306.14 178.09 296.24 187.99 284.07 187.99C271.9 187.99 262 178.09 262 165.92V127.63H306.14V165.92ZM318.14 127.63H362.28V165.92C362.28 178.09 352.38 187.99 340.21 187.99C328.04 187.99 318.14 178.09 318.14 165.92V127.63ZM418.42 165.92C418.42 178.09 408.52 187.99 396.35 187.99C384.18 187.99 374.28 178.09 374.28 165.92V127.63H418.42V165.92ZM59 57.95C59 40.88 72.88 27 89.95 27H422.06C439.12 27 453 40.88 453 57.95V115.64H424.42H368.28H312.14H256H199.86H143.72H87.58H59V57.95ZM37.45 165.92V127.63H81.5899V165.92C81.5899 178.09 71.69 187.99 59.52 187.99C47.35 187.99 37.45 178.09 37.45 165.92ZM474.55 471.9C474.55 479.12 468.67 485 461.45 485H50.5499C43.3299 485 37.45 479.12 37.45 471.9C37.45 464.68 43.3299 458.8 50.5499 458.8H461.46C468.68 458.8 474.55 464.68 474.55 471.9ZM202.56 446.8H103.15V280.82H202.56V446.8ZM453 446.8H214.56V274.82C214.56 271.51 211.87 268.82 208.56 268.82H97.1499C93.8399 268.82 91.1499 271.51 91.1499 274.82V446.8H59V199.98C59.17 199.98 59.34 199.99 59.52 199.99C71.15 199.99 81.4399 194.13 87.5899 185.2C93.7399 194.12 104.03 199.99 115.66 199.99C127.29 199.99 137.58 194.13 143.73 185.2C149.88 194.12 160.17 199.99 171.8 199.99C183.43 199.99 193.72 194.13 199.87 185.2C206.02 194.12 216.31 199.99 227.94 199.99C239.57 199.99 249.86 194.13 256.01 185.2C262.16 194.12 272.45 199.99 284.08 199.99C295.71 199.99 306 194.13 312.15 185.2C318.3 194.12 328.59 199.99 340.22 199.99C351.85 199.99 362.14 194.13 368.29 185.2C374.44 194.12 384.72 199.99 396.36 199.99C407.99 199.99 418.28 194.12 424.43 185.2C430.58 194.12 440.86 199.99 452.5 199.99C452.67 199.99 452.84 199.98 453.02 199.98V446.8H453ZM321.32 97.78V44.85C321.32 41.54 324.01 38.85 327.32 38.85H350.39C353.7 38.85 356.39 41.54 356.39 44.85C356.39 48.16 353.7 50.85 350.39 50.85H333.32V65.32H350.39C353.7 65.32 356.39 68.01 356.39 71.32C356.39 74.63 353.7 77.32 350.39 77.32H333.32V91.79H350.39C353.7 91.79 356.39 94.48 356.39 97.79C356.39 101.1 353.7 103.79 350.39 103.79H327.32C324.01 103.78 321.32 101.1 321.32 97.78ZM279.48 97.78V44.85C279.48 41.54 282.17 38.85 285.48 38.85H308.55C311.86 38.85 314.55 41.54 314.55 44.85C314.55 48.16 311.86 50.85 308.55 50.85H291.48V65.32H308.55C311.86 65.32 314.55 68.01 314.55 71.32C314.55 74.63 311.86 77.32 308.55 77.32H291.48V97.79C291.48 101.1 288.79 103.79 285.48 103.79C282.17 103.79 279.48 101.1 279.48 97.78ZM165.11 94.27C158.98 88.14 155.6 79.99 155.6 71.31C155.6 62.63 158.98 54.48 165.11 48.35C177.77 35.69 198.37 35.69 211.02 48.35C213.36 50.69 213.36 54.49 211.02 56.84C208.68 59.18 204.88 59.18 202.53 56.84C194.55 48.86 181.57 48.86 173.58 56.84C169.71 60.71 167.59 65.85 167.59 71.31C167.59 76.77 169.72 81.92 173.58 85.78C181.56 93.76 194.54 93.76 202.53 85.78C204.87 83.44 208.67 83.44 211.01 85.78C213.35 88.12 213.35 91.92 211.01 94.27C204.68 100.6 196.37 103.76 188.05 103.76C179.73 103.76 171.44 100.6 165.11 94.27ZM223.46 103.41C226.56 104.57 230.02 102.99 231.18 99.89L236.73 85.02H253.89L259.44 99.89C260.34 102.3 262.63 103.79 265.06 103.79C265.76 103.79 266.47 103.67 267.16 103.41C270.26 102.25 271.84 98.8 270.68 95.69L250.93 42.76C250.05 40.41 247.81 38.86 245.31 38.86C242.81 38.86 240.56 40.42 239.69 42.76L219.94 95.69C218.78 98.79 220.36 102.25 223.46 103.41ZM249.42 73.01H241.21L245.31 62.01L249.42 73.01Z" fill="#C45ED1"/>
</svg>
