<svg width="26" height="26" viewBox="0 0 26 26" fill="none" xmlns="http://www.w3.org/2000/svg">
<g clip-path="url(#clip0_103_448)">
<path d="M13.0648 25.7677C12.992 25.7677 12.921 25.7309 12.8798 25.6646C12.8183 25.5645 12.8482 25.4336 12.9465 25.3695L17.3865 22.4848L12.0331 25.5758C11.9304 25.6356 11.7995 25.6009 11.7388 25.4999C11.6777 25.3985 11.7098 25.2672 11.8099 25.2044L14.1577 23.7363L11.3952 25.3314C11.2934 25.3903 11.1638 25.3578 11.1018 25.2568C11.0403 25.1567 11.0706 25.0259 11.169 24.9617L17.555 20.8312L10.2196 25.0662C10.1177 25.126 9.98688 25.0922 9.92578 24.9912C9.86468 24.8902 9.89545 24.7594 9.99468 24.6957L16.346 20.6535L8.87105 24.9691C8.76922 25.0289 8.63835 24.9955 8.57725 24.8937C8.51615 24.7932 8.54692 24.6619 8.64615 24.5986L16.6637 19.5009L7.87655 24.5739C7.77472 24.6341 7.64428 24.5999 7.58275 24.4985C7.52165 24.398 7.55285 24.2667 7.65208 24.203L16.4877 18.6078L7.13425 24.008C7.03068 24.0673 6.89982 24.0331 6.83958 23.9308C6.77892 23.829 6.81185 23.6968 6.91325 23.6353L9.45691 22.087L6.76332 23.6418C6.66148 23.7016 6.53062 23.6674 6.46908 23.566C6.40798 23.4646 6.44005 23.3333 6.54015 23.2704L14.8181 18.093L6.06912 23.1443C5.96642 23.2041 5.83555 23.1699 5.77488 23.0681C5.71378 22.9671 5.74585 22.8354 5.84595 22.7725L13.8782 17.7723L5.22368 22.7686C5.12055 22.8289 4.98925 22.7938 4.92902 22.6915C4.86835 22.5897 4.90128 22.4575 5.00268 22.3955L8.43468 20.3099L4.70412 22.4636C4.60142 22.5234 4.46968 22.4887 4.40945 22.3864C4.34878 22.2846 4.38172 22.1529 4.48312 22.0909L9.12498 19.2625L4.24565 22.0792C4.14295 22.1386 4.01208 22.1043 3.95142 22.0034C3.89032 21.902 3.92238 21.7707 4.02248 21.7078L14.1157 15.4037L3.71308 21.4093C3.60995 21.4691 3.47908 21.4348 3.41885 21.333C3.35775 21.2312 3.39025 21.0999 3.49078 21.037L12.2593 15.616L3.38462 20.7398C3.28192 20.7996 3.15105 20.7653 3.08995 20.6631C3.02928 20.5612 3.06222 20.4291 3.16318 20.3671L9.58908 16.4376L3.11942 20.1725C3.01628 20.2319 2.88542 20.1977 2.82475 20.0963C2.76408 19.9944 2.79658 19.8631 2.89712 19.8003L11.4286 14.5292L2.68998 19.5741C2.58685 19.6339 2.45555 19.5992 2.39532 19.497C2.33465 19.3951 2.36758 19.2634 2.46855 19.2014L8.02562 15.8115L2.26445 19.1377C2.16132 19.1971 2.03002 19.1629 1.96978 19.061C1.90912 18.9592 1.94205 18.827 2.04302 18.7651L8.29861 14.94L1.86752 18.6528C1.76395 18.7126 1.63265 18.678 1.57242 18.5753C1.51175 18.473 1.54555 18.3408 1.64738 18.2793L2.34592 17.8585L1.63568 18.2685C1.53255 18.3278 1.40168 18.294 1.34102 18.1918C1.28035 18.0895 1.31328 17.9582 1.41425 17.8958L8.33762 13.6543L1.39302 17.6692C1.28988 17.7285 1.15858 17.6943 1.09835 17.5925C1.03768 17.4906 1.07062 17.3585 1.17158 17.2965L7.41462 13.4806L1.25738 17.0352C1.15425 17.095 1.02295 17.0603 0.962282 16.9581C0.901615 16.8558 0.935415 16.7241 1.03638 16.6621L4.76478 14.4005L1.23485 16.4385C1.13128 16.4979 1.00042 16.4636 0.939749 16.3614C0.879082 16.2591 0.912882 16.1269 1.01428 16.0654L3.62598 14.4842L1.21405 15.8769C1.11048 15.9367 0.979615 15.9016 0.918949 15.7998C0.858282 15.6975 0.892082 15.5658 0.993049 15.5038L4.03678 13.6569L1.11395 15.3443C1.01125 15.4041 0.880382 15.3699 0.819282 15.2676C0.758615 15.1658 0.791115 15.0341 0.892082 14.9721L6.52498 11.5154L0.908115 14.758C0.805415 14.8174 0.674549 14.7832 0.613882 14.6822C0.552782 14.5808 0.584849 14.4495 0.684949 14.3867L8.94732 9.22609L0.653315 14.017C0.551482 14.0768 0.420615 14.0435 0.359082 13.9412C0.297982 13.8402 0.329615 13.7089 0.429715 13.6457L9.05218 8.22942L0.556682 13.1348C0.453982 13.1941 0.323115 13.1599 0.262449 13.0589C0.201349 12.9575 0.233415 12.8262 0.333515 12.7634L7.84448 8.06692L0.694049 12.1957C0.592215 12.256 0.460915 12.2222 0.399815 12.1199C0.338715 12.0189 0.370349 11.8876 0.470449 11.8244L7.63475 7.32376L1.09748 11.0981C0.995215 11.1579 0.865215 11.1245 0.803682 11.0223C0.742149 10.9213 0.773782 10.79 0.873449 10.7272L6.76288 7.02216L1.23442 10.2137C1.13172 10.2735 1.00085 10.2388 0.940182 10.1378C0.879082 10.0364 0.911149 9.90512 1.01125 9.84229L4.67248 7.55689L1.23832 9.53939C1.13648 9.59919 1.00605 9.56539 0.944515 9.46399C0.883415 9.36346 0.914182 9.23216 1.01385 9.16889L5.73718 6.17152L1.39952 8.67532C1.29768 8.73512 1.16682 8.70089 1.10528 8.59949C1.04418 8.49852 1.07625 8.36679 1.17592 8.30396L3.60735 6.78079L1.79298 7.82816C1.69115 7.88709 1.56115 7.85416 1.50005 7.75406C1.43852 7.65396 1.46798 7.52309 1.56635 7.45896L5.80825 4.69776L3.07088 6.27769C2.97165 6.33576 2.84295 6.30499 2.78012 6.20749C2.71772 6.10999 2.74242 5.98129 2.83688 5.91369L6.11158 3.58019L3.71048 4.96642C3.61082 5.02492 3.48168 4.99329 3.41972 4.89579C3.35688 4.79786 3.38245 4.66916 3.47735 4.60199L6.86082 2.21259C6.82528 2.11552 6.86342 2.00416 6.95615 1.95086L8.47932 1.07162C8.57855 1.01269 8.70768 1.04476 8.77008 1.14226C8.83292 1.24019 8.80735 1.36889 8.71245 1.43606L7.60658 2.21736L9.82351 0.93729C9.92275 0.878357 10.051 0.90999 10.1143 1.00749C10.1767 1.10499 10.152 1.23369 10.0575 1.30129L6.78195 3.63522L12.6133 0.270824C12.7151 0.211024 12.8451 0.244824 12.9062 0.344924C12.9678 0.445024 12.9383 0.57589 12.8399 0.640024L8.59848 3.40122L13.8288 0.381324C13.9315 0.321957 14.0619 0.35619 14.123 0.457157C14.1841 0.558124 14.1521 0.689857 14.0524 0.75269L11.6162 2.27846L14.4888 0.62009C14.5919 0.560724 14.7215 0.59409 14.7826 0.69549C14.8437 0.796024 14.8129 0.927324 14.7132 0.99059L9.99338 3.98579L15.3624 0.886157C15.4651 0.826357 15.5951 0.86059 15.6566 0.96199C15.7177 1.06339 15.6856 1.19469 15.5855 1.25752L11.9204 3.54552L16.4392 0.936424C16.5415 0.877057 16.6719 0.910424 16.733 1.01226C16.7945 1.11322 16.7629 1.24452 16.6632 1.30736L10.7751 5.01149L17.4879 1.13619C17.5906 1.07726 17.721 1.11019 17.7821 1.21202C17.8432 1.31299 17.8116 1.44429 17.7115 1.50756L10.542 6.01119L18.2982 1.53182C18.4005 1.47202 18.5309 1.50626 18.5924 1.60766C18.6535 1.70906 18.6215 1.84036 18.5214 1.90319L11.0152 6.59662L18.9114 2.03752C19.0141 1.97816 19.1449 2.01152 19.2056 2.11336C19.2667 2.21432 19.2351 2.34562 19.135 2.40889L10.5073 7.82816L19.5475 2.60909C19.6498 2.54886 19.7806 2.58352 19.8417 2.68492C19.9028 2.78632 19.8708 2.91762 19.7707 2.98046L11.5105 8.13929L20.3357 3.04416C20.438 2.98436 20.5689 3.01816 20.6304 3.12086C20.6911 3.22269 20.6586 3.35442 20.5576 3.41639L14.923 6.87396L21.0161 3.35659C21.1188 3.29636 21.2501 3.33102 21.3112 3.43372C21.3718 3.53599 21.338 3.66772 21.2371 3.72969L18.2042 5.56962L21.4806 3.67856C21.5837 3.61832 21.7146 3.65342 21.7757 3.75569C21.8364 3.85796 21.8026 3.99012 21.7012 4.05166L19.0895 5.63289L21.8602 4.03346C21.9633 3.97279 22.0942 4.00832 22.1553 4.11059C22.216 4.21286 22.1822 4.34459 22.0812 4.40656L18.3502 6.66986L22.1965 4.44946C22.2992 4.38922 22.4305 4.42432 22.4911 4.52616C22.5518 4.62799 22.5189 4.76016 22.4179 4.82212L16.174 8.63849L22.5024 4.98506C22.6047 4.92482 22.7355 4.95906 22.7971 5.06176C22.8577 5.16359 22.8248 5.29532 22.7238 5.35772L15.8048 9.59702L22.7537 5.58479C22.8564 5.52456 22.9882 5.55966 23.0488 5.66236C23.1095 5.76506 23.0757 5.89679 22.9739 5.95832L22.2472 6.39556L22.9726 5.97696C23.0753 5.91672 23.2066 5.95139 23.2672 6.05366C23.3279 6.15592 23.295 6.28766 23.194 6.34962L16.9484 10.1682L23.3496 6.47269C23.4523 6.41246 23.5836 6.44712 23.6442 6.54982C23.7049 6.65166 23.672 6.78339 23.571 6.84536L18.0061 10.2397L23.779 6.90732C23.8813 6.84709 24.0121 6.88132 24.0737 6.98359C24.1343 7.08542 24.1018 7.21672 24.0013 7.27956L15.472 12.5493L24.2305 7.49276C24.3332 7.43252 24.4641 7.46676 24.5252 7.56946C24.5859 7.67129 24.5529 7.80346 24.452 7.86542L18.0291 11.7932L24.51 8.05132C24.6127 7.99109 24.7436 8.02532 24.8047 8.12759C24.8654 8.22942 24.8329 8.36072 24.7323 8.42312L15.9586 13.8476L24.7198 8.78972C24.8225 8.72992 24.9525 8.76416 25.014 8.86556C25.0751 8.96696 25.043 9.09826 24.9429 9.16109L14.8549 15.4618L24.7679 9.73872C24.8701 9.67849 25.0019 9.71316 25.0625 9.81586C25.1232 9.91769 25.0903 10.0494 24.9889 10.1114L20.3392 12.945L24.8233 10.3562C24.926 10.296 25.0573 10.3311 25.118 10.4334C25.1787 10.5356 25.1457 10.6674 25.0443 10.7293L21.6188 12.8119L24.9572 10.8845C25.0595 10.8242 25.1904 10.8585 25.2515 10.9607C25.3126 11.0617 25.2805 11.1934 25.1804 11.2563L17.1494 16.2561L25.235 11.5878C25.3377 11.5288 25.4681 11.5622 25.5292 11.6636C25.5903 11.765 25.5583 11.8963 25.4582 11.9591L17.1772 17.1388L25.4196 12.3803C25.5227 12.3197 25.6536 12.3548 25.7143 12.4575C25.7749 12.5593 25.742 12.6915 25.6406 12.753L23.0952 14.3026L25.4439 12.9467C25.5466 12.8878 25.6766 12.9211 25.7377 13.0221C25.7988 13.1231 25.7676 13.2539 25.6683 13.3176L16.8357 18.9107L25.2298 14.0643C25.3321 14.0049 25.4625 14.0383 25.5236 14.1397C25.5847 14.2402 25.5539 14.3715 25.4547 14.4348L17.4354 19.5338L24.8264 15.2668C24.9291 15.2074 25.0591 15.2412 25.1202 15.3417C25.1813 15.4427 25.1505 15.5736 25.0513 15.6373L18.7008 19.679L24.7735 16.1729C24.8758 16.1139 25.0049 16.1464 25.0669 16.2474C25.1284 16.3475 25.0981 16.4784 24.9997 16.5425L18.615 20.6717L24.6418 17.1925C24.744 17.1327 24.8749 17.1669 24.936 17.2683C24.9971 17.3697 24.965 17.501 24.8649 17.5639L22.5102 19.0359L24.3163 17.9933C24.4186 17.9339 24.5477 17.9669 24.6097 18.0674C24.6712 18.1675 24.6413 18.2984 24.543 18.3625L20.1039 21.2463L23.048 19.5468C23.1476 19.4879 23.2759 19.5199 23.3387 19.6174C23.4016 19.7149 23.376 19.8436 23.2815 19.9112L19.798 22.3834L22.3802 20.8927C22.4794 20.8338 22.6073 20.8659 22.6705 20.9625C22.7334 21.0596 22.7091 21.1883 22.6155 21.2559L19.1346 23.7714C19.1839 23.8728 19.1471 23.9967 19.0483 24.0535L17.5251 24.9327C17.4259 24.9912 17.2976 24.9596 17.2348 24.8629C17.172 24.7663 17.1962 24.6372 17.2898 24.5696L18.9278 23.3861L16.0072 25.0722C15.9079 25.1307 15.7797 25.0991 15.7164 25.0016C15.6536 24.9041 15.6791 24.7754 15.7736 24.7078L19.2563 22.2365L13.1792 25.7452C13.145 25.7651 13.1077 25.7742 13.0709 25.7742L13.0648 25.7677Z" fill="#6BB577"/>
<path d="M10.2186 20.1232C10.1497 20.1232 10.0821 20.0902 10.04 20.0296C9.97634 19.9364 9.99454 19.8099 10.0821 19.7384L10.1323 19.6972L9.7978 19.89C9.69987 19.9472 9.57334 19.9182 9.5105 19.8246C9.4468 19.7306 9.46587 19.6036 9.5547 19.533L11.0198 18.369L9.2557 19.3874C9.15517 19.4467 9.0269 19.4142 8.96407 19.3159C8.90167 19.2175 8.92854 19.0879 9.0243 19.0216L9.70637 18.5497L8.88954 19.0212C8.7903 19.0797 8.66117 19.0481 8.59834 18.9501C8.53594 18.8522 8.56194 18.7231 8.65684 18.6563L11.1394 16.9139L8.3769 18.509C8.28374 18.564 8.16414 18.5406 8.09697 18.454C8.03067 18.3682 8.03804 18.2464 8.11387 18.1693L8.80547 17.469L7.87424 18.0063C7.7828 18.0596 7.66537 18.0384 7.59777 17.9556C7.5306 17.8737 7.5332 17.7546 7.60384 17.6753L8.43324 16.7423L7.2771 17.4096C7.18307 17.4642 7.06217 17.4404 6.99587 17.3524C6.93 17.2653 6.93954 17.1427 7.0184 17.0664L7.6073 16.4975L6.81994 16.952C6.7246 17.0084 6.60067 16.9819 6.53524 16.8905C6.47067 16.7995 6.4854 16.6743 6.56904 16.601L6.83684 16.3675L6.4555 16.5876C6.3606 16.6439 6.23754 16.6175 6.1721 16.5278C6.1071 16.4381 6.11967 16.3137 6.20157 16.2396L6.60717 15.8722L6.06377 16.1859C5.97277 16.2396 5.85534 16.218 5.78774 16.1356C5.72057 16.0537 5.72274 15.9346 5.79337 15.8553L6.59677 14.9466L5.75957 15.4293C5.669 15.4822 5.55287 15.4614 5.48527 15.3812C5.41767 15.3002 5.41767 15.1832 5.48527 15.1026L5.89174 14.6194C5.81937 14.6168 5.75004 14.5782 5.71147 14.5111C5.65124 14.4075 5.68677 14.2749 5.79077 14.2151L6.68084 13.7012C6.77097 13.6479 6.88754 13.6691 6.95514 13.7493C7.02274 13.8303 7.02274 13.9473 6.95514 14.0279L6.6102 14.4383L7.5319 13.9061C7.62334 13.8528 7.74034 13.8741 7.80837 13.9564C7.8751 14.0383 7.87294 14.1575 7.8023 14.2368L6.99934 15.1446L8.15027 14.4803C8.2456 14.4248 8.36824 14.4508 8.43367 14.5401C8.49867 14.6298 8.4861 14.7542 8.4042 14.8283L7.99817 15.1962L8.55024 14.8777C8.646 14.8218 8.7695 14.8482 8.83494 14.9392C8.8995 15.0302 8.88477 15.1554 8.80114 15.2287L8.53334 15.4622L8.91684 15.2408C9.01044 15.1849 9.13177 15.21 9.19807 15.298C9.26394 15.3851 9.2544 15.5077 9.17554 15.584L8.58664 16.153L9.37704 15.6967C9.46804 15.6434 9.5859 15.6646 9.6535 15.7474C9.72067 15.8293 9.71807 15.9484 9.64744 16.0277L8.81804 16.9607L9.9772 16.2916C10.0708 16.2375 10.1904 16.2604 10.2571 16.3467C10.3234 16.4325 10.3161 16.5542 10.2398 16.6314L9.54864 17.3316L15.169 14.0873C15.2682 14.0283 15.3973 14.0604 15.4602 14.1583C15.5226 14.2563 15.4966 14.3854 15.4017 14.4521L12.9191 16.1946L14.0995 15.5134C14.2009 15.4544 14.3283 15.4869 14.3911 15.5849C14.4535 15.6832 14.4267 15.8128 14.3309 15.8791L13.4283 16.5031C13.4972 16.4979 13.5782 16.5308 13.6228 16.5976C13.6865 16.6916 13.6675 16.8186 13.5786 16.8892L12.1144 18.0527L12.2561 17.9712C12.3532 17.914 12.4788 17.9431 12.543 18.0354C12.6067 18.1285 12.5885 18.2551 12.5009 18.3266L11.8189 18.8821C11.8427 18.8994 11.8631 18.922 11.8782 18.9484C11.9385 19.052 11.9029 19.1846 11.7989 19.2444L10.3269 20.0941C10.2931 20.1141 10.2554 20.1232 10.2186 20.1232Z" fill="white"/>
<path d="M10.4346 16.6578C10.3618 16.6578 10.2912 16.6209 10.25 16.5551C10.1885 16.4554 10.2175 16.325 10.3155 16.26L11.0898 15.7504C11.0266 15.743 10.9681 15.7088 10.9317 15.6516C10.8688 15.5536 10.8944 15.4245 10.9893 15.3573L13.8597 13.3371L12.3634 14.2008C12.2642 14.2588 12.1355 14.2281 12.0731 14.1306C12.0102 14.0335 12.0349 13.9048 12.129 13.8372L15.4882 11.4305L13.6404 12.4973C13.5399 12.5558 13.4116 12.5242 13.3492 12.4263C13.2868 12.3283 13.3128 12.1992 13.4077 12.1325L15.2776 10.8234L14.6037 11.2121C14.5041 11.271 14.3745 11.2389 14.3121 11.1401C14.2497 11.0413 14.277 10.9118 14.3728 10.8459L15.1606 10.3051C15.1042 10.296 15.0522 10.2648 15.0171 10.215C14.9534 10.1222 14.9708 9.99614 15.0574 9.92421L16.6716 8.59301L16.49 8.69744C16.3956 8.75291 16.2734 8.72777 16.2075 8.63851C16.1421 8.55011 16.1538 8.42661 16.2344 8.35121L17.0131 7.62711C16.9983 7.61324 16.9853 7.59677 16.9745 7.57814C16.9143 7.47457 16.9498 7.34197 17.0538 7.28217L17.9452 6.76737C18.0396 6.71191 18.1618 6.73704 18.2277 6.82631C18.2931 6.91471 18.2814 7.03821 18.2008 7.11361L17.9296 7.36581L18.7096 6.91557C18.8058 6.85881 18.9314 6.88697 18.996 6.97927C19.0597 7.07201 19.0424 7.19811 18.9557 7.27004L17.3407 8.60211L19.2538 7.49754C19.3557 7.43947 19.4835 7.47111 19.5455 7.56947C19.6079 7.66827 19.5806 7.79784 19.4848 7.86371L19.2161 8.04831L19.3721 7.95817C19.4714 7.89967 19.6009 7.93131 19.6633 8.02924C19.7257 8.12717 19.6997 8.25631 19.6048 8.32304L17.732 9.63387L19.0983 8.84521C19.1971 8.78627 19.3258 8.81791 19.3886 8.91541C19.4514 9.01247 19.4267 9.14117 19.3327 9.20877L15.9735 11.6151L17.8212 10.5486C17.9205 10.4897 18.0496 10.5218 18.112 10.6193C18.1748 10.7172 18.1493 10.8463 18.0544 10.9135L15.184 12.9337L16.6803 12.0701C16.7825 12.0111 16.9112 12.0441 16.9732 12.1437C17.0347 12.2434 17.0057 12.3738 16.9078 12.4388L16.1334 12.9484C16.1993 12.9562 16.2612 12.9935 16.2968 13.0555C16.357 13.159 16.3215 13.2916 16.2175 13.3514L10.5425 16.6279C10.5083 16.6478 10.471 16.6569 10.4342 16.6569L10.4346 16.6578Z" fill="white"/>
<path d="M7.9482 18.4358C10.7415 22.0506 12.0532 18.9107 13.9113 16.5226C15.4457 14.4768 16.9802 12.4306 18.515 10.3844C19.2374 9.4636 20.5426 8.1051 19.2708 7.06727C17.937 6.08837 16.6556 7.4473 16.0203 8.5692C14.102 11.1272 12.1836 13.6851 10.2652 16.2427C9.06144 15.3101 8.11591 13.1877 6.31844 13.8234C3.79687 15.1771 6.85881 17.2471 7.9482 18.4358ZM6.01857 14.7087C7.28044 12.2538 9.37257 17.5903 10.5534 16.6665C12.8531 13.6015 15.1511 10.5335 17.4508 7.46984C18.3356 6.45411 19.5841 7.89147 19.0307 8.87427C16.7301 12.0042 14.3542 15.0961 12.0337 18.2182C11.7078 18.6524 11.1488 19.7223 10.52 19.7457C9.03284 19.2643 8.14537 17.55 6.93594 16.5906C6.42417 16.0784 5.72131 15.5398 6.01901 14.7087H6.01857Z" fill="#262626"/>
<path d="M0.691474 10.8641C-0.374959 12.7665 0.506441 14.3945 0.800241 16.3211C0.749108 17.5535 1.30117 18.4843 2.12797 19.3401C3.13591 20.5539 3.46567 22.3739 5.18947 22.8631C6.70094 23.6002 7.72231 25.2452 9.61814 25.0237C11.306 25.2036 12.9227 26.2258 14.6045 25.3201C14.731 25.3037 15.8954 24.9418 15.9353 24.9748C17.6695 25.3409 19.0379 23.9525 20.2855 22.9901C20.4255 22.9654 20.448 22.926 20.3531 22.8722C22.2303 22.5524 22.8513 20.7602 23.7431 19.3393C24.5413 18.5727 25.5414 17.1609 25.0929 16.1148C25.2281 16.1148 25.2879 15.2022 25.3334 15.0423C25.9617 13.7584 26.077 12.3002 25.3949 11.0063C25.0899 9.42373 25.2571 7.79699 23.8731 6.65993C22.8651 5.44573 22.5358 3.62616 20.8116 3.13693C19.2997 2.39983 18.2787 0.755327 16.3829 0.976327C14.6951 0.79606 13.0787 -0.225307 11.3965 0.679927C11.267 0.692927 10.1078 1.06083 10.0658 1.02529C8.33244 0.65956 6.96267 2.04709 5.71554 3.00996C5.57557 3.03466 5.55304 3.07409 5.64794 3.12783C3.77074 3.44763 3.14977 5.23989 2.25797 6.66079C1.45977 7.42736 0.459641 8.83916 0.908141 9.88523C0.761674 9.88523 0.730908 10.7094 0.691474 10.8641ZM1.12481 11.2975C1.25957 10.8186 1.63744 9.98143 1.31634 9.61699C1.47147 9.61699 1.46974 8.91803 1.50051 8.77416C1.65391 7.93219 2.17911 7.27223 2.76844 6.68593C3.60737 5.75296 3.76467 4.35416 4.90521 3.67686C5.01744 3.60189 5.15221 3.54989 5.25924 3.47059C5.42044 3.35186 5.17344 3.45889 5.31601 3.39606C6.88901 2.99219 7.71927 1.23459 9.43744 1.19776C10.3994 1.41529 11.3757 0.858027 12.2966 0.614927C13.6477 0.336293 14.7666 1.30479 16.1151 1.24716C17.3687 1.16396 18.3715 1.92403 19.1961 2.76556C19.9826 3.40949 20.994 3.56073 21.7016 4.33596C22.3737 5.07263 22.5341 6.08489 23.2226 6.81419C24.0529 7.69343 24.6093 8.56919 24.5764 9.82196C24.5512 10.6618 24.8923 11.2931 25.1107 12.0727C25.3646 12.9329 25.2441 13.8143 24.9131 14.6242C24.7848 15.0519 24.3281 16.068 24.6843 16.3826C24.5291 16.3826 24.5309 17.0816 24.5001 17.2255C24.3467 18.0674 23.8215 18.7274 23.2322 19.3137C22.3932 20.2467 22.2359 21.6455 21.0954 22.3228C20.9832 22.3977 20.8484 22.4497 20.7414 22.529C20.5802 22.6478 20.8272 22.5407 20.6846 22.6036C19.1116 23.0074 18.2813 24.765 16.5632 24.8019C15.6016 24.5848 14.6249 25.1412 13.704 25.3847C12.3529 25.6638 11.2336 24.6944 9.88551 24.7525C8.63274 24.8365 7.62871 24.0752 6.80451 23.2341C6.01801 22.5901 5.00661 22.4389 4.29897 21.6637C3.62687 20.927 3.46654 19.9147 2.77797 19.1854C1.94771 18.3062 1.39131 17.4304 1.42424 16.1777C1.33021 14.5141 0.199641 12.9385 1.12481 11.2975Z" fill="#262626"/>
</g>
<defs>
<clipPath id="clip0_103_448">
<rect width="26" height="26" fill="white"/>
</clipPath>
</defs>
</svg>
