<svg width="482" height="418" viewBox="0 0 482 418" fill="none" xmlns="http://www.w3.org/2000/svg">
<path d="M476 173.89H440.85V94.98C440.85 88.32 439.5 82.43 436.61 76.43C426.31 55.05 421.45 31.51 422.17 6.45003C422.22 4.83003 421.61 3.26003 420.48 2.10003C419.35 0.940029 417.8 0.280029 416.18 0.280029H393.58C391.96 0.280029 390.41 0.940029 389.28 2.10003C388.15 3.26003 387.54 4.83003 387.59 6.45003C388.31 31.51 383.46 55.06 373.15 76.43C370.26 82.43 368.91 88.32 368.91 94.98V173.89H338.58C339.05 172.33 339.31 170.69 339.31 168.98C339.31 159.66 331.72 152.07 322.4 152.07H317.12C317.36 149.55 317.48 147.02 317.48 144.49C317.48 106.13 290.16 74.03 253.95 66.62V57.12C253.95 48.33 246.79 41.17 238 41.17C229.21 41.17 222.05 48.32 222.05 57.12V66.62C185.84 74.03 158.52 106.13 158.52 144.49C158.52 147.02 158.64 149.55 158.88 152.07H153.6C144.28 152.07 136.69 159.66 136.69 168.98C136.69 170.69 136.95 172.34 137.42 173.89H101.54C99.19 173.89 97.29 172.43 96.68 170.16L80.47 109.65C77.14 97.21 66.24 88.85 53.36 88.85H20.34C9.12 88.85 0 97.98 0 109.27C0 120.49 9.13 129.61 20.34 129.61H39.76C42.11 129.61 44.01 131.07 44.62 133.34L60.83 193.85C64.16 206.29 75.06 214.65 87.94 214.65H93.62V361.46C86.99 367.37 82.81 375.96 82.81 385.51C82.81 403.28 97.27 417.73 115.04 417.73C132.81 417.73 147.26 403.27 147.26 385.51C147.26 375.96 143.08 367.36 136.45 361.46V350.01C141.39 353.68 147.5 355.85 154.11 355.85H162.89C172.54 355.85 181.13 351.21 186.55 344.05C191.97 351.21 200.55 355.85 210.21 355.85H218.99C228.64 355.85 237.23 351.21 242.65 344.06C248.07 351.22 256.66 355.85 266.31 355.85H275.09C284.74 355.85 293.33 351.21 298.74 344.06C304.16 351.22 312.75 355.85 322.4 355.85H331.18C340.83 355.85 349.42 351.21 354.84 344.06C360.26 351.22 368.84 355.85 378.5 355.85H387.28C393.89 355.85 400 353.67 404.94 350.01V360.57C397.72 366.48 393.1 375.47 393.1 385.51C393.1 403.28 407.56 417.73 425.32 417.73C443.08 417.73 457.54 403.27 457.54 385.51C457.54 375.47 452.92 366.49 445.7 360.57V214.65H476C479.31 214.65 482 211.96 482 208.65V179.89C482 176.57 479.31 173.89 476 173.89ZM380.91 94.98C380.91 90.13 381.85 86.01 383.96 81.64C394.25 60.29 399.52 36.98 399.66 12.27H410.12C410.25 36.98 415.52 60.28 425.82 81.64C427.93 86.01 428.87 90.13 428.87 94.98V173.89H380.92V94.98H380.91ZM234.06 57.11C234.06 54.97 235.87 53.16 238.01 53.16C240.15 53.16 241.96 54.97 241.96 57.11V65.1C240.65 65.04 239.34 65 238.01 65C236.69 65 235.37 65.04 234.06 65.1V57.11ZM170.53 144.48C170.53 107.27 200.8 77 238.01 77C275.22 77 305.49 107.27 305.49 144.48C305.49 147.01 305.33 149.55 305.05 152.06H170.97C170.69 149.55 170.53 147.02 170.53 144.48ZM148.7 168.97C148.7 166.26 150.9 164.06 153.61 164.06H322.4C325.11 164.06 327.31 166.26 327.31 168.97C327.31 171.68 325.11 173.88 322.4 173.88H153.61C150.9 173.89 148.7 171.68 148.7 168.97ZM115.04 405.73C103.89 405.73 94.81 396.66 94.81 385.51C94.81 374.36 103.88 365.29 115.04 365.29C126.19 365.29 135.26 374.36 135.26 385.51C135.26 396.66 126.19 405.73 115.04 405.73ZM115.04 353.28C111.77 353.28 108.61 353.77 105.63 354.69V214.65H124.46V354.69C121.48 353.78 118.32 353.28 115.04 353.28ZM162.89 343.85H154.11C144.37 343.85 136.45 335.93 136.45 326.19V214.65H180.54V326.2C180.55 335.93 172.63 343.85 162.89 343.85ZM218.99 343.85H210.21C200.47 343.85 192.55 335.93 192.55 326.2V214.65H236.64V326.2C236.64 335.93 228.72 343.85 218.99 343.85ZM275.08 343.85H266.3C256.56 343.85 248.64 335.93 248.64 326.2V214.65H292.73V326.2C292.73 335.93 284.81 343.85 275.08 343.85ZM331.17 343.85H322.39C312.65 343.85 304.73 335.93 304.73 326.2V214.65H348.82V326.2C348.83 335.93 340.91 343.85 331.17 343.85ZM387.26 343.85H378.48C368.74 343.85 360.82 335.93 360.82 326.2V214.65H404.91V326.2C404.92 335.93 397 343.85 387.26 343.85ZM425.3 405.73C414.15 405.73 405.08 396.66 405.08 385.51C405.08 374.36 414.15 365.29 425.3 365.29C436.45 365.29 445.52 374.36 445.52 385.51C445.52 396.66 436.45 405.73 425.3 405.73ZM433.68 354.39C431.01 353.67 428.2 353.28 425.3 353.28C422.4 353.28 419.59 353.67 416.92 354.39V214.65H433.68V354.39ZM470 202.65H87.95C80.58 202.65 74.34 197.87 72.43 190.74L56.22 130.23C54.2 122.68 47.58 117.61 39.77 117.61H20.34C15.74 117.61 12 113.87 12 109.19C12 104.59 15.74 100.85 20.34 100.85H53.37C60.74 100.85 66.98 105.64 68.89 112.76L85.1 173.27C87.12 180.82 93.73 185.89 101.55 185.89H470V202.65Z" fill="#C45ED1"/>
</svg>
