<svg width="512" height="512" viewBox="0 0 512 512" fill="none" xmlns="http://www.w3.org/2000/svg">
<path d="M488.86 143.57V119.39H488.85C488.85 118.06 488.41 116.74 487.55 115.65L409.24 17.2698C408.1 15.8398 406.37 15.0098 404.55 15.0098H107.45C105.62 15.0098 103.89 15.8398 102.76 17.2698L24.4499 115.65C23.5899 116.73 23.1499 118.05 23.1499 119.39H23.1399V143.57C23.1399 159.94 33.6799 173.88 48.3299 178.98V254.09H29.1399C25.8299 254.09 23.1399 256.78 23.1399 260.09V287.81C23.1399 291.12 25.8299 293.81 29.1399 293.81H48.3299V419.14C48.3299 422.45 51.0199 425.14 54.3299 425.14H74.6299C74.6099 425.75 74.5799 426.35 74.5799 426.96C74.5799 465.59 106 497.01 144.63 497.01C183.26 497.01 214.68 465.59 214.68 426.96C214.68 426.35 214.65 425.75 214.63 425.14H297.36C297.34 425.75 297.31 426.35 297.31 426.96C297.31 465.59 328.73 497.01 367.36 497.01C405.99 497.01 437.41 465.59 437.41 426.96C437.41 426.35 437.38 425.75 437.36 425.14H457.66C460.97 425.14 463.66 422.45 463.66 419.14V293.8H482.85C486.16 293.8 488.85 291.11 488.85 287.8V260.08C488.85 256.77 486.16 254.08 482.85 254.08H463.66V178.97C478.32 173.87 488.86 159.93 488.86 143.57ZM110.34 26.9998H401.66L470.42 113.38H41.5799L110.34 26.9998ZM35.1399 143.57V125.39H476.87V143.57C476.87 157.63 465.43 169.07 451.37 169.07H449.55C435.49 169.07 424.05 157.63 424.05 143.57C424.05 140.26 421.36 137.57 418.05 137.57C414.74 137.57 412.05 140.26 412.05 143.57C412.05 157.63 400.61 169.07 386.55 169.07H384.73C370.67 169.07 359.23 157.63 359.23 143.57C359.23 140.26 356.54 137.57 353.23 137.57C349.92 137.57 347.23 140.26 347.23 143.57C347.23 157.63 335.79 169.07 321.73 169.07H319.91C305.85 169.07 294.41 157.63 294.41 143.57C294.41 140.26 291.72 137.57 288.41 137.57C285.1 137.57 282.41 140.26 282.41 143.57C282.41 157.63 270.97 169.07 256.91 169.07H255.09C241.03 169.07 229.59 157.63 229.59 143.57C229.59 140.26 226.9 137.57 223.59 137.57C220.28 137.57 217.59 140.26 217.59 143.57C217.59 157.63 206.15 169.07 192.09 169.07H190.27C176.21 169.07 164.77 157.63 164.77 143.57C164.77 140.26 162.08 137.57 158.77 137.57C155.46 137.57 152.77 140.26 152.77 143.57C152.77 157.63 141.33 169.07 127.27 169.07H125.45C111.39 169.07 99.9499 157.63 99.9499 143.57C99.9499 140.26 97.2599 137.57 93.9499 137.57C90.6399 137.57 87.9499 140.26 87.9499 143.57C87.9499 157.63 76.5099 169.07 62.4499 169.07H60.6299C46.5799 169.06 35.1399 157.63 35.1399 143.57ZM243.15 254.09V207.84H425.34V254.09H243.15ZM196.17 254.09C195.15 243.45 186.17 235.1 175.27 235.1H116.2C105.3 235.1 96.3199 243.45 95.2999 254.09H86.6399V172.18C89.4599 169.79 91.9299 167.01 93.9399 163.89C100.63 174.22 112.25 181.06 125.44 181.06H127.26C140.45 181.06 152.07 174.21 158.76 163.89C165.45 174.22 177.07 181.06 190.26 181.06H192.08C196.55 181.06 200.84 180.26 204.82 178.81V254.08H196.17V254.09ZM184.04 254.09H107.44C108.36 250.09 111.93 247.1 116.21 247.1H175.28C179.55 247.1 183.12 250.09 184.04 254.09ZM216.83 171.7C219.42 169.42 221.71 166.8 223.59 163.89C225.67 167.1 228.22 169.97 231.15 172.41V254.09H216.83V171.7ZM425.35 195.84H243.15V179.12C246.9 180.38 250.91 181.07 255.09 181.07H256.91C270.1 181.07 281.72 174.22 288.41 163.9C295.1 174.23 306.72 181.07 319.91 181.07H321.73C334.92 181.07 346.54 174.22 353.23 163.9C359.92 174.23 371.54 181.07 384.73 181.07H386.55C399.74 181.07 411.36 174.22 418.05 163.9C420.06 167.01 422.53 169.8 425.35 172.19V195.84ZM60.3299 181.06C60.4299 181.06 60.5399 181.07 60.6399 181.07H62.4599C66.7299 181.07 70.8299 180.34 74.6599 179.02V254.09H60.3299V181.06ZM144.63 485C112.62 485 86.5799 458.96 86.5799 426.95C86.5799 394.94 112.62 368.9 144.63 368.9C176.64 368.9 202.68 394.94 202.68 426.95C202.68 458.96 176.64 485 144.63 485ZM367.37 485C335.36 485 309.32 458.96 309.32 426.95C309.32 394.94 335.36 368.9 367.37 368.9C399.38 368.9 425.42 394.94 425.42 426.95C425.42 458.96 399.38 485 367.37 485ZM451.67 413.13H436.05C429.61 381.1 401.27 356.9 367.37 356.9C333.47 356.9 305.13 381.1 298.69 413.13H213.3C206.86 381.1 178.52 356.9 144.62 356.9C110.72 356.9 82.3799 381.1 75.9399 413.13H60.3299V293.8H451.67V413.13ZM476.86 281.8H35.1399V266.08H476.87V281.8H476.86ZM451.67 254.09H437.35V179.02C441.18 180.34 445.28 181.07 449.55 181.07H451.37C451.47 181.07 451.57 181.06 451.68 181.06V254.09H451.67ZM367.37 392.2C348.21 392.2 332.62 407.79 332.62 426.95C332.62 446.11 348.21 461.7 367.37 461.7C386.53 461.7 402.12 446.11 402.12 426.95C402.12 407.79 386.53 392.2 367.37 392.2ZM367.37 404.2C374.72 404.2 381.26 407.7 385.42 413.13H349.32C353.48 407.71 360.03 404.2 367.37 404.2ZM367.37 449.7C354.83 449.7 344.62 439.5 344.62 426.95C344.62 426.34 344.65 425.73 344.7 425.13H390.03C390.08 425.73 390.11 426.34 390.11 426.95C390.12 439.49 379.91 449.7 367.37 449.7ZM144.63 392.2C125.47 392.2 109.88 407.79 109.88 426.95C109.88 446.11 125.47 461.7 144.63 461.7C163.79 461.7 179.38 446.11 179.38 426.95C179.38 407.79 163.79 392.2 144.63 392.2ZM144.63 404.2C151.98 404.2 158.52 407.7 162.68 413.13H126.58C130.74 407.71 137.28 404.2 144.63 404.2ZM144.63 449.7C132.09 449.7 121.88 439.5 121.88 426.95C121.88 426.34 121.91 425.73 121.96 425.13H167.29C167.34 425.73 167.37 426.34 167.37 426.95C167.38 439.49 157.17 449.7 144.63 449.7Z" fill="#C45ED1"/>
</svg>
