<svg width="483" height="482" viewBox="0 0 483 482" fill="none" xmlns="http://www.w3.org/2000/svg">
<path d="M480.4 387.98L479.76 385.95C474.19 368.31 455.84 358.26 437.97 363.08L325.52 393.4C326.41 391.45 327.12 389.38 327.63 387.21C331.78 369.47 321.04 352.25 303.17 348.01L176.38 317.88C157.74 313.45 140.17 315.09 122.67 322.89L90.05 337.42V318.54C90.05 315.23 87.36 312.54 84.05 312.54H6C2.69 312.54 0 315.23 0 318.54V476C0 479.31 2.69 482 6 482H84.05C87.36 482 90.05 479.31 90.05 476V456.62L130.74 453.76C137.32 453.3 142.9 453.63 149.38 454.87L263.24 476.67C271.58 478.27 279.64 479.07 287.62 479.07C300.18 479.07 312.51 477.08 325.26 473.05L457.94 431.17C466.69 428.41 473.85 422.39 478.1 414.22C482.35 406.05 483.17 396.73 480.4 387.98ZM12 470V324.54H78.05V346.77V346.78V470H12ZM467.45 408.68C464.68 414.01 460.02 417.93 454.33 419.73L321.65 461.61C302.52 467.65 285.21 468.66 265.5 464.89L151.64 443.09C144.18 441.66 137.48 441.26 129.9 441.8L90.05 444.6V350.57L127.56 333.86C142.77 327.08 157.41 325.72 173.61 329.57L300.4 359.7C311.74 362.39 318.57 373.29 315.95 384.49C314.23 391.84 308.85 397.4 302.2 399.71L302.16 399.72C301.94 399.78 301.72 399.85 301.52 399.93C298.05 401 294.25 401.2 290.47 400.31L212.97 382.17C209.75 381.41 206.52 383.42 205.76 386.64C205 389.87 207.01 393.09 210.23 393.85L287.73 411.99C293.87 413.43 300.02 413.05 305.62 411.21L441.1 374.67C452.73 371.53 464.69 378.08 468.32 389.57L468.96 391.6C470.76 397.29 470.22 403.35 467.45 408.68ZM310.17 126.95C345.17 126.95 373.64 98.48 373.64 63.48C373.64 28.48 345.17 0.0100098 310.17 0.0100098C275.17 0.0100098 246.7 28.48 246.7 63.48C246.7 98.47 275.18 126.95 310.17 126.95ZM310.17 12C338.55 12 361.64 35.09 361.64 63.47C361.64 91.85 338.55 114.94 310.17 114.94C281.79 114.94 258.7 91.85 258.7 63.47C258.7 35.09 281.79 12 310.17 12ZM199.02 286.26H370.15C380.93 303.16 399.83 314.4 421.33 314.4C454.79 314.4 482 287.18 482 253.73C482 220.28 454.78 193.06 421.33 193.06C418.13 193.06 414.98 193.31 411.92 193.79C395.68 170.33 369.4 156.44 340.79 156.44H279.57C231.85 156.44 193.03 195.26 193.03 242.98V280.26C193.03 281.85 193.66 283.38 194.79 284.5C195.91 285.62 197.43 286.26 199.02 286.26ZM470 253.72C470 280.56 448.16 302.39 421.33 302.39C394.5 302.39 372.66 280.56 372.66 253.72C372.66 226.88 394.49 205.05 421.33 205.05C448.17 205.05 470 226.88 470 253.72ZM205.02 242.98C205.02 201.88 238.46 168.44 279.56 168.44H340.78C363.96 168.44 385.37 179.04 399.48 197.13C376.79 205.92 360.64 227.96 360.64 253.72C360.64 260.92 361.91 267.84 364.22 274.25H205.01V242.98H205.02ZM389.25 255.48C386.91 253.14 386.91 249.34 389.25 246.99C391.59 244.65 395.39 244.65 397.74 246.99L413.71 262.96L444.92 231.75C447.26 229.41 451.06 229.41 453.41 231.75C455.75 234.09 455.75 237.89 453.41 240.24L417.96 275.69C416.83 276.81 415.31 277.45 413.72 277.45C412.13 277.45 410.6 276.82 409.48 275.69L389.25 255.48Z" fill="#C45ED1"/>
</svg>
