<svg width="28" height="28" viewBox="0 0 28 28" fill="none" xmlns="http://www.w3.org/2000/svg">
<g clip-path="url(#clip0_7_133)">
<path d="M25.645 18.6243L20.7705 16.1914C19.5454 15.5789 18.0578 15.9815 17.3139 17.1366L16.4738 18.423C15.1436 17.9329 11.8094 16.314 9.61281 11.7546L11.2756 10.2932C12.212 9.46184 12.4569 8.06164 11.8444 6.96773L9.22774 2.26839C8.86021 1.62079 8.23888 1.14821 7.52127 0.973138C6.79495 0.798181 6.02483 0.920638 5.40351 1.33197L2.08687 3.50229C1.23793 4.06236 0.765401 5.06879 0.896721 6.07511C1.413 10.2319 4.47587 24.0501 21.882 27.0604C22.0307 27.0867 22.1795 27.1042 22.3283 27.1042C23.2384 27.1042 24.0873 26.6316 24.5948 25.8353L26.7126 22.466C27.1152 21.8185 27.2289 21.0397 27.0277 20.3045C26.8264 19.5782 26.3188 18.9656 25.645 18.6243Z" fill="white"/>
</g>
<defs>
<clipPath id="clip0_7_133">
<rect width="28" height="28" fill="white"/>
</clipPath>
</defs>
</svg>
