<svg width="123" height="21" viewBox="0 0 123 21" fill="none" xmlns="http://www.w3.org/2000/svg">
<path d="M10.9372 0L13.5191 7.9463H21.8743L15.1148 12.8574L17.6967 20.8037L10.9372 15.8926L4.17762 20.8037L6.75953 12.8574L0 7.9463H8.35524L10.9372 0Z" fill="#F5C720"/>
<path d="M37.9371 0L40.5191 7.9463H48.8743L42.1148 12.8574L44.6967 20.8037L37.9371 15.8926L31.1776 20.8037L33.7595 12.8574L27 7.9463H35.3552L37.9371 0Z" fill="#F5C720"/>
<path d="M61.4371 0L64.1313 7.9463H72.8498L65.7964 12.8574L68.4906 20.8037L61.4371 15.8926L54.3837 20.8037L57.0779 12.8574L50.0245 7.9463H58.743L61.4371 0Z" fill="#F5C720"/>
<path d="M84.9371 0L87.5191 7.9463H95.8743L89.1148 12.8574L91.6967 20.8037L84.9371 15.8926L78.1776 20.8037L80.7595 12.8574L74 7.9463H82.3552L84.9371 0Z" fill="#F5C720"/>
<path d="M111.937 0L114.519 7.9463H122.874L116.115 12.8574L118.697 20.8037L111.937 15.8926L105.178 20.8037L107.76 12.8574L101 7.9463H109.355L111.937 0Z" fill="#F5C720"/>
</svg>
